<svg width="175" height="635" viewBox="0 0 175 635" fill="none" xmlns="http://www.w3.org/2000/svg">
<path d="M107.175 64.6561C109.71 57.7628 111.65 50.6671 112.968 43.4413C114.286 36.2011 113.794 28.7586 111.52 21.764C111.144 20.7091 107.914 13.6712 106.799 13.7723C106.017 13.7723 107.972 20.3911 107.566 20.9981C103.656 27.5157 102.512 35.4496 103.033 42.9644C103.612 50.3202 105.003 57.5893 107.175 64.6417" fill="#263238"/>
<path d="M106.929 102.288L108.261 36.6491C109.087 18.2523 99.0501 2.44232 80.5986 2.12439L78.8896 2.19665C61.6981 2.90477 47.9391 16.6482 47.2583 33.8021C46.6356 49.6988 46.1431 67.373 46.6066 75.8994C47.5625 93.5447 65.4347 95.5535 65.4347 95.5535V102.302L92.1127 117.231L98.4853 116.638L106.929 102.288Z" fill="#AE7461"/>
<path d="M65.363 95.5535C73.5315 95.1922 81.4248 92.5042 88.1016 87.8075C88.1016 87.8075 83.1049 101.32 65.3775 100.453V95.5535H65.363Z" fill="#6F4439"/>
<path d="M53.3419 49.5399C53.3998 50.8983 54.515 51.9822 55.8909 51.9822C57.2234 52.0255 58.353 50.985 58.3965 49.6555C58.3965 49.641 58.3965 49.6121 58.3965 49.5977C58.353 48.2248 57.2378 47.1409 55.8619 47.1554C54.515 47.112 53.3853 48.1525 53.3419 49.4965C53.3419 49.511 53.3419 49.5254 53.3419 49.5399Z" fill="#263238"/>
<path d="M51.3435 41.4325C51.6766 41.7504 53.5305 40.2619 56.2533 40.1608C58.9761 40.0596 61.0182 41.3313 61.2934 40.9845C61.5686 40.6377 61.0907 40.2475 60.2072 39.655C58.9906 38.889 57.5712 38.5133 56.1374 38.5856C54.7181 38.6434 53.3567 39.1492 52.2559 40.0307C51.4449 40.6955 51.1842 41.3024 51.3435 41.4325Z" fill="#263238"/>
<path d="M77.9638 49.5398C78.0072 50.8983 79.1369 51.9822 80.4983 51.9822C81.8308 52.0255 82.9605 50.985 83.0039 49.6555C83.0039 49.641 83.0039 49.6121 83.0039 49.5976C82.9605 48.2248 81.8453 47.1409 80.4694 47.1553C79.1369 47.0975 78.0217 48.1236 77.9638 49.4531C77.9638 49.482 77.9638 49.5109 77.9638 49.5398Z" fill="#263238"/>
<path d="M77.4419 41.4325C77.775 41.7504 79.6289 40.2619 82.3517 40.1608C85.0745 40.0596 87.1167 41.3313 87.3918 40.9845C87.667 40.6377 87.2036 40.2475 86.2911 39.655C85.089 38.889 83.6697 38.5133 82.2358 38.5856C80.8165 38.6434 79.4551 39.1492 78.3543 40.0307C77.5433 40.6955 77.2826 41.3024 77.4419 41.4325Z" fill="#263238"/>
<path d="M69.1425 62.2138C67.6942 61.8236 66.1879 61.6213 64.6817 61.6069C63.9865 61.6069 63.3347 61.4479 63.2334 60.9855C63.1465 60.2629 63.2768 59.5403 63.6099 58.9044C64.2037 57.1992 64.812 55.4216 65.4493 53.5429C67.9838 45.927 69.7942 39.655 69.4901 39.5538C69.1859 39.4527 66.8686 45.5657 64.3341 53.1961C63.7258 55.0748 63.132 56.8668 62.5816 58.5865C62.1761 59.4391 62.0892 60.4074 62.3354 61.3178C62.5671 61.8092 63.0016 62.156 63.523 62.2861C63.9141 62.3728 64.3051 62.4017 64.7106 62.3873C66.1879 62.5173 67.6797 62.4595 69.1425 62.2138Z" fill="#263238"/>
<path d="M76.7898 37.4295C77.1953 38.1087 79.8023 37.2705 83.0175 37.0682C86.2328 36.8658 88.9122 37.256 89.2163 36.519C89.3467 36.1722 88.7673 35.5797 87.6232 35.0739C84.5238 33.8455 81.0478 34.1056 78.1657 35.7675C77.0939 36.4179 76.616 37.0971 76.7898 37.4295Z" fill="#263238"/>
<path d="M50.8938 31.2009C51.4731 31.8078 53.6746 31.0997 56.3395 30.9985C59.0044 30.8974 61.2637 31.2876 61.7706 30.6228C61.9879 30.3049 61.6113 29.6979 60.612 29.1776C57.8023 27.8192 54.5001 27.9926 51.8497 29.6401C50.9228 30.2615 50.6331 30.9118 50.8938 31.2009Z" fill="#263238"/>
<path d="M107.349 49.7855C107.639 49.641 119.356 45.6957 119.472 57.7772C119.588 69.8587 107.393 67.4886 107.378 67.1418C107.364 66.7949 107.349 49.7855 107.349 49.7855Z" fill="#AE7461"/>
<path d="M111.027 62.5462C111.027 62.5462 111.245 62.6907 111.607 62.8497C112.114 63.052 112.664 63.052 113.171 62.8497C114.46 62.3728 115.517 60.3351 115.546 58.153C115.575 57.1125 115.358 56.0864 114.938 55.147C114.692 54.3811 114.098 53.7886 113.33 53.5429C112.823 53.4129 112.302 53.6585 112.085 54.1354C111.925 54.4678 112.085 54.7135 111.94 54.7279C111.795 54.7424 111.679 54.5401 111.781 54.0343C111.838 53.7308 112.012 53.4562 112.244 53.2683C112.577 53.0227 112.997 52.9071 113.403 52.9504C114.416 53.1383 115.242 53.8464 115.619 54.8002C116.14 55.8407 116.401 56.9968 116.386 58.1674C116.386 60.6097 115.097 62.8931 113.345 63.4133C112.693 63.6156 111.983 63.5 111.418 63.1098C111.056 62.8208 110.984 62.5462 111.027 62.5462Z" fill="#6F4439"/>
<path d="M55.0934 13.7723C53.1237 12.6884 59.0038 6.35867 63.7833 4.17649C71.0248 0.867088 82.1769 -1.17058 88.8971 0.737024C96.9787 3.02036 103.684 7.02344 107.725 14.3648C111.636 21.8363 113.489 30.2037 113.084 38.6289C113.185 41.2013 112.592 43.7448 111.375 46.0137C109.695 48.6872 106.451 50.3491 106.595 54.0632C106.682 55.4071 106.233 56.7367 105.335 57.7483C103.12 60.1039 100.411 57.8928 99.1656 55.6817C96.5007 50.9416 96.1966 45.2911 95.9648 39.8718C95.5738 35.9987 95.8345 32.0968 96.718 28.3105C97.3118 26.3018 98.2532 24.3942 98.7456 22.3565C99.3684 20.3188 99.0498 18.1078 97.8766 16.3158C97.5725 15.9545 97.2538 15.6365 96.8918 15.3331C93.4593 12.3416 88.6653 11.4167 84.3638 12.9486C77.5423 15.362 65.8978 18.9748 62.8563 16.6626C58.5114 13.3388 57.4252 11.171 57.4252 11.171L55.0934 13.7723Z" fill="#263238"/>
<path d="M77.6727 63.8902C77.2672 63.8902 77.2382 66.6504 74.7761 68.6014C72.314 70.5523 69.4318 70.2488 69.4028 70.639C69.3739 71.0292 70.0691 71.1737 71.3146 71.2171C72.9367 71.246 74.5299 70.6968 75.8044 69.6852C77.021 68.6881 77.8031 67.2718 77.9913 65.7255C78.1796 64.5694 77.861 63.8757 77.6727 63.8902Z" fill="#263238"/>
<path d="M68.3312 553.45L68.8961 585.46C68.8961 585.46 36.4828 596.79 36.0048 602.715L98.2824 603.843L99.4121 553.898L68.3312 553.45Z" fill="#263238"/>
<path d="M88.1874 583.119C89.404 583.524 90.1282 584.752 89.8965 586.009C89.5344 587.252 88.2599 588.004 86.9998 587.715C85.6963 587.281 84.9287 585.952 85.2184 584.608C85.7253 583.35 87.1302 582.714 88.4192 583.162" fill="#E0E0E0"/>
<path d="M98.2402 603.843L98.1678 598.813L38.5262 599.608C38.5262 599.608 35.7309 600.764 36.0061 602.715L98.2402 603.843Z" fill="#455A64"/>
<path d="M67.8246 585.128C67.8246 585.431 69.2729 585.605 70.8226 586.573C72.3723 587.541 73.0675 588.871 73.3572 588.755C73.6468 588.639 73.2123 586.876 71.4019 585.691C69.5916 584.506 67.8246 584.853 67.8246 585.128Z" fill="white"/>
<path d="M61.3064 587.7C61.234 588.004 62.552 588.538 63.5513 589.839C64.5507 591.14 64.8403 592.498 65.1445 592.498C65.4486 592.498 65.6659 590.778 64.3769 589.174C63.0879 587.57 61.3209 587.411 61.3064 587.7Z" fill="white"/>
<path d="M57.4692 595.432C57.7444 595.504 58.1934 593.987 57.4692 592.325C56.7451 590.663 55.3112 589.955 55.1809 590.215C55.0505 590.475 55.9051 591.371 56.4989 592.744C57.0927 594.117 57.1651 595.403 57.4692 595.432Z" fill="white"/>
<path d="M68.5786 577.815C68.6944 578.104 70.0269 577.7 71.8083 577.815C73.5897 577.931 74.8643 578.523 75.0236 578.263C75.1829 578.003 73.9229 576.905 71.8952 576.818C69.8676 576.731 68.4337 577.584 68.5786 577.815Z" fill="white"/>
<path d="M140.631 560.358L144.006 598.944L137.851 630.231C137.431 632.37 138.821 634.465 140.979 634.884C141.066 634.899 141.167 634.913 141.254 634.928C142.529 635.101 143.803 634.624 144.672 633.685C150.219 627.601 170.525 605.346 170.119 602.542C169.641 599.276 169.265 561.601 169.265 561.601L140.631 560.358Z" fill="#263238"/>
<path d="M141.254 634.928L169.945 599.926L170.061 601.588C170.148 603.004 169.742 604.406 168.888 605.548C166.614 608.597 160.198 616.849 144.788 633.714C143.89 634.697 142.572 635.159 141.254 634.957V634.928Z" fill="#455A64"/>
<g opacity="0.6">
<path d="M161.198 587.96C160.257 588.755 160.068 590.114 160.749 591.14C161.502 592.108 162.878 592.325 163.892 591.617C164.891 590.778 165.08 589.319 164.355 588.249C163.457 587.324 161.995 587.267 161.024 588.119" fill="white"/>
</g>
<path d="M149.017 617.485C148.018 616.343 146.801 615.389 145.44 614.696C143.977 614.219 142.456 614.031 140.921 614.132C140.921 614.045 141.356 613.713 142.254 613.525C143.441 613.308 144.658 613.453 145.759 613.915C146.859 614.349 147.815 615.086 148.525 616.04C149.017 616.863 149.119 617.485 149.017 617.485Z" fill="white"/>
<path d="M146.598 622.832C145.454 622.283 144.266 621.791 143.064 621.387C141.79 621.228 140.515 621.141 139.241 621.141C140.399 620.317 141.891 620.101 143.253 620.549C145.57 621.083 146.786 622.716 146.598 622.832Z" fill="white"/>
<path d="M153.738 610.519C152.029 609.522 150.262 608.655 148.422 607.918C145.323 606.906 142.629 607.21 142.629 606.95C146.728 605.866 151.073 607.268 153.781 610.519H153.738Z" fill="white"/>
<path d="M153.695 598.698C153.608 598.929 151.407 598.178 148.612 598.264C145.816 598.351 143.658 599.146 143.557 598.915C146.642 596.992 150.538 596.906 153.695 598.698Z" fill="white"/>
<path d="M152.986 587.339C151.262 586.905 149.495 586.703 147.714 586.746C145.961 587.05 144.267 587.599 142.659 588.365C142.659 588.293 142.992 587.772 143.847 587.209C144.991 586.486 146.28 586.038 147.627 585.908C148.974 585.764 150.335 585.937 151.595 586.443C152.551 586.833 153.044 587.252 152.986 587.339Z" fill="white"/>
<path d="M38.0762 286.169C35.0782 299.436 34.0499 313.078 35.0637 326.633C35.7299 335.218 64.7977 573.032 64.7977 573.032H104.033L93.0108 349.525L96.2261 350.218C96.2261 350.218 117.647 445.598 119.399 460.975C120.963 474.848 138.358 583.986 138.358 583.986L175 580.677L163.413 442.722L150.074 314.812L145.063 277.585L38.0762 286.169Z" fill="#263238"/>
<path d="M99.209 326.706C98.7021 327.081 98.1517 327.399 97.5724 327.631C96.0372 328.411 94.4006 328.975 92.706 329.321C91.5184 329.538 90.2874 329.538 89.0997 329.321C87.6804 329.09 86.3769 328.469 85.3052 327.515C84.2044 326.402 83.4223 325.015 83.0168 323.512C82.5534 321.994 82.2927 320.405 81.974 318.801C80.714 312.355 79.874 306.459 79.3671 302.181C79.1208 300.043 78.9615 298.323 78.8746 297.109C78.8167 296.487 78.8167 295.866 78.8746 295.245C79.0774 295.837 79.1933 296.459 79.2512 297.08C79.454 298.438 79.7147 300.115 80.0188 302.109C80.6561 306.358 81.5975 312.225 82.9154 318.642C83.5527 321.821 83.9727 325.058 85.9714 326.966C87.8542 328.541 90.3453 329.177 92.7495 328.714C94.4151 328.425 96.0227 327.934 97.5724 327.269C98.0938 327.024 98.6441 326.836 99.209 326.706Z" fill="#455A64"/>
<path d="M87.3911 296.401C87.3911 296.401 87.6518 296.198 88.2022 296.155C88.9987 296.141 89.7663 296.386 90.4036 296.863C91.3885 297.557 91.9968 298.684 92.0547 299.884C91.9099 302.022 90.0415 303.641 87.898 303.496C86.9711 303.424 86.0876 303.034 85.4214 302.369C84.6683 301.415 84.3931 300.173 84.6828 299.002C84.8421 298.236 85.2621 297.542 85.8704 297.037C86.3049 296.69 86.6235 296.646 86.638 296.675C85.8993 297.311 85.3924 298.164 85.1897 299.118C85.0304 300.1 85.3055 301.098 85.9428 301.863C87.2608 303.034 89.2739 302.918 90.4471 301.618C90.8816 301.141 91.1567 300.534 91.2291 299.884C91.2002 298.886 90.7512 297.962 89.9836 297.326C89.245 296.748 88.3325 296.415 87.3911 296.401Z" fill="#455A64"/>
<path d="M56.1082 109.86C48.6204 110.323 35.0641 114.817 29.3288 125.511C24.5204 134.457 23.2169 172.681 22.9562 173.592L37.4394 177.32L55.8764 204.532L131.377 187.725L136.113 199.604L139.01 114.543C139.01 114.543 63.6105 109.398 56.1082 109.86Z" fill="#455A64"/>
<path d="M143.818 238.465L149.611 157.175L148.264 118.618L112.954 103.097L109.45 89.6139L72.894 106.855L65.2325 98.4149L62.0317 107.938L54.0225 110.54L35.3537 142.333L35.6144 195.5C35.6144 195.5 33.6447 260.532 35.2089 283.091C35.3972 285.909 37.2655 288.322 39.9304 289.247C46.4043 291.198 53.1535 292.181 59.9171 292.138C96.7478 293.019 146.903 290.692 146.903 290.692L147.41 289.088C148.844 284.608 149.278 279.868 148.655 275.2L143.818 238.465Z" fill="#455A64"/>
<path d="M68.0564 124.876C68.5633 122.838 68.9688 121.219 69.273 120.034C69.4033 119.529 69.5192 119.109 69.6206 118.777C69.6206 118.488 69.7509 118.344 69.7654 118.358C69.7944 118.502 69.7944 118.647 69.7654 118.792C69.7654 119.138 69.6206 119.557 69.5192 120.078C69.2585 121.277 68.9109 122.968 68.4764 124.962C67.5639 129.211 66.188 135.353 64.6528 142.969C63.1176 150.585 61.4665 159.689 60.3079 169.878C59.1492 180.066 58.8596 191.382 58.7003 203.232C58.454 226.947 59.0913 248.407 59.4968 263.928C59.6996 271.631 59.8734 277.888 60.0037 282.325C60.0037 284.435 60.0037 286.097 60.1051 287.34V288.64C60.1196 288.785 60.1196 288.944 60.1051 289.088V288.64C60.1051 288.351 60.1051 287.86 60.0037 287.34C60.0037 286.111 59.8444 284.449 59.7286 282.339C59.5258 277.903 59.2506 271.645 58.9175 263.957C58.3382 248.422 57.5995 226.947 57.8313 203.261C57.9761 191.382 58.3816 180.138 59.5258 169.805C60.67 159.473 62.4224 150.455 64.059 142.853" fill="#263238"/>
<g opacity="0.3">
<path d="M72.7352 108.675C72.4021 108.936 70.2731 129.052 70.2731 129.052L109.262 105.554L73.7635 123.329L72.7352 108.675Z" fill="black"/>
</g>
<path d="M73.2422 106.724C72.6339 107.881 71.9822 108.993 71.258 110.077C70.0269 112.144 68.3614 115.034 66.8406 118.344L66.4641 119.138L66.2179 119.659L65.9716 119.153C64.7116 116.479 63.6254 113.733 62.7129 110.915C62.3798 109.846 62.1336 108.979 61.9888 108.372C61.8874 108.068 61.8295 107.736 61.815 107.418C61.8874 107.418 62.3074 108.704 63.075 110.8C64.0599 113.56 65.1896 116.277 66.4641 118.922H65.9716L66.3482 118.112C67.6807 115.265 69.2159 112.505 70.9394 109.875C71.6056 108.863 72.1559 108.068 72.5615 107.519C72.967 106.97 73.2132 106.696 73.2422 106.724Z" fill="#263238"/>
<path d="M112.939 103.097C112.766 103.227 112.592 103.328 112.404 103.415L110.839 104.239L105.046 107.245C100.151 109.788 93.4596 113.416 85.9863 117.361C81.4531 119.774 77.1661 122 73.4294 123.864L73.0963 124.037V123.662C73.0963 118.82 73.0094 114.76 72.9804 111.811V108.473C72.9515 108.083 72.9515 107.678 72.9804 107.288C73.0528 107.678 73.0818 108.083 73.0818 108.473C73.0818 109.311 73.1253 110.424 73.2122 111.811C73.2846 114.702 73.4004 118.82 73.5163 123.647L73.1687 123.445C76.8909 121.537 81.1634 119.297 85.6966 116.884C93.1265 112.924 99.8756 109.34 104.829 106.883C107.306 105.655 109.319 104.687 110.724 103.993L112.346 103.256C112.534 103.184 112.737 103.126 112.939 103.097Z" fill="#263238"/>
<path d="M68.0133 109.716C67.405 106.016 67.2312 102.259 67.5064 98.5161C67.5064 98.5161 70.0554 91.2903 69.6788 89.9752C69.3023 88.6601 68.6505 87.3017 66.1015 88.5301C63.5525 89.7584 60.3082 92.0996 59.9751 96.305C59.9027 98.2704 59.5551 100.221 58.9468 102.086L56.5281 98.386L57.035 94.5708C57.035 94.5708 60.6413 93.6604 60.7717 91.6805C59.5986 90.7556 58.382 89.8885 57.1219 89.0937C57.1219 89.0937 50.6624 89.4116 50.0107 91.825C49.359 94.2384 47.7224 99.4699 47.7224 99.4699C47.7224 99.4699 42.3636 100.366 41.7263 104.701C41.7263 104.701 38.6559 108.777 38.8297 111.32C37.9028 112.953 37.3814 114.788 37.2945 116.667C37.4248 119.095 44.4492 129.283 44.4492 129.283L46.5927 145.252L66.3043 138.605L65.0008 124.052C65.0008 124.052 69.0416 114.947 68.0133 109.716Z" fill="#AE7461"/>
<path d="M68.0135 109.629C68.1149 109.947 68.1728 110.28 68.2018 110.612C68.3031 111.566 68.3031 112.548 68.2018 113.502C67.6949 117.144 66.681 120.714 65.2038 124.081V123.965C65.5948 128.041 66.0727 132.954 66.6521 138.503V138.764L66.3914 138.836L46.4915 144.067L46.086 144.168V143.764C45.4632 139.168 44.8115 134.312 44.1163 129.312V129.486C42.3059 126.827 40.4955 124.066 38.8154 121.118C38.3954 120.381 37.9899 119.673 37.6133 118.849C37.1788 118.04 36.9326 117.144 36.8892 116.219C37.034 114.413 37.5699 112.664 38.4678 111.089V111.32C38.4823 110.323 38.7141 109.34 39.1485 108.43C39.7858 107.014 40.5679 105.655 41.4948 104.412L41.4079 104.6C41.6686 103.083 42.4942 101.71 43.7397 100.785C44.9273 99.9178 46.3032 99.3109 47.7515 99.0363L47.4329 99.3109C48.2295 96.6807 49.0261 94.0794 49.7937 91.536C50.1123 90.8423 50.6771 90.2787 51.3723 89.9607C51.9951 89.6717 52.6324 89.4405 53.2986 89.2671C54.5731 88.9347 55.8911 88.7468 57.209 88.6746H57.3394L57.4408 88.7468L59.4395 90.0908L60.4243 90.7845L60.9167 91.1602L61.0471 91.2758L61.1485 91.3914C61.2064 91.4781 61.2498 91.5793 61.2498 91.6949V92.0562C60.9457 92.8799 60.3229 93.5592 59.5263 93.9494C58.8167 94.3251 58.078 94.6286 57.2959 94.8453L57.5856 94.5274C57.3973 95.8281 57.2235 97.0998 57.0642 98.3571V98.1114L59.4829 101.811H58.8601C59.2946 100.395 59.5988 98.9496 59.7436 97.4755C59.787 95.9726 60.1346 94.4985 60.7574 93.1401C62.1333 90.7411 64.3058 88.8913 66.9128 87.9231C67.55 87.634 68.2887 87.634 68.9259 87.9231C69.4908 88.2844 69.8963 88.8335 70.0556 89.4838C70.1715 89.7873 70.2149 90.1053 70.2004 90.4232C70.1715 90.7122 70.1425 91.0157 70.0846 91.3047C69.9687 91.8539 69.8384 92.3886 69.708 92.9088C69.1432 94.9899 68.5059 96.8397 67.9266 98.5016C67.7093 101.276 67.7093 104.051 67.9266 106.826C68.0135 107.779 68.1004 108.488 68.1583 108.964C68.1873 109.21 68.1873 109.456 68.1583 109.702C68.0859 109.47 68.028 109.239 67.9845 108.993C67.8831 108.516 67.7673 107.794 67.6514 106.855C67.3328 104.065 67.2748 101.262 67.4486 98.4727C67.999 96.8108 68.6073 94.961 69.1287 92.8944C69.259 92.3741 69.3894 91.8539 69.4763 91.3047C69.5342 91.0446 69.5632 90.77 69.5777 90.5099C69.5921 90.2498 69.5487 89.9896 69.4473 89.7584C69.3459 88.8769 68.5494 88.241 67.6659 88.3422C67.4342 88.3711 67.2024 88.4433 66.9997 88.5734C64.552 89.4983 62.4954 91.2614 61.2064 93.5447C60.6271 94.8454 60.3084 96.2472 60.2795 97.6634C60.1346 99.2097 59.8305 100.742 59.3815 102.23L59.1643 102.88L58.7587 102.288C57.9767 101.088 57.1656 99.86 56.3256 98.6028L56.2532 98.4871V98.3571C56.427 97.1142 56.5863 95.8425 56.7601 94.5419V94.2962H57.0063C57.716 94.1083 58.3967 93.8337 59.0339 93.4725C59.6567 93.169 60.1346 92.6632 60.3953 92.0273V91.7961C60.3229 91.7961 61.0905 91.7961 60.7574 91.7961H60.5836C60.5112 91.7961 60.3519 91.9406 60.4243 91.955C60.4967 91.9695 60.4243 91.955 60.4243 91.955H60.3374L59.8884 91.6082L58.9181 90.929L56.9194 89.5994H57.1511C55.8911 89.6717 54.6455 89.874 53.4145 90.1775C52.2558 90.4954 50.8509 91.0012 50.5178 91.955C49.7502 94.4985 48.9681 97.0853 48.186 99.7155V99.9467H47.9253C46.6074 100.207 45.3763 100.756 44.2901 101.551C43.2038 102.331 42.4942 103.516 42.2769 104.831V104.933L42.2045 105.019C41.321 106.219 40.5679 107.519 39.9596 108.878C39.583 109.658 39.3803 110.511 39.3513 111.378V111.595C38.5403 113.054 38.0478 114.673 37.903 116.335C37.9464 117.13 38.1782 117.91 38.5547 118.604C38.9168 119.355 39.3079 120.049 39.7279 120.829C41.379 123.72 43.1894 126.494 44.9708 129.139V129.312C45.637 134.356 46.2743 139.212 46.8826 143.764L46.4191 143.446L66.3624 138.344L66.1307 138.662C65.6527 133.113 65.2472 128.185 64.8996 124.11V123.994C66.4059 120.67 67.4776 117.173 68.0714 113.575C68.2307 112.259 68.2018 110.93 68.0135 109.629Z" fill="#6F4439"/>
<path d="M63.1895 109.152C62.0598 108.025 61.1328 106.724 60.4521 105.294C59.5397 104.008 58.859 102.562 58.4245 101.045C59.5542 102.158 60.4811 103.458 61.1618 104.889C62.0742 106.19 62.7694 107.62 63.1895 109.152Z" fill="#6F4439"/>
<g opacity="0.3">
<path d="M79.4119 224.273C109.218 223.999 134.969 203.391 141.689 174.415L79.4119 224.273Z" fill="black"/>
</g>
<path d="M70.4315 137.13L88.1879 185.89L123.498 129.688C123.498 129.688 141.935 109.051 150.596 121.219C159.257 133.388 154.854 156.423 149.365 167.363C144.252 177.479 96.9792 237.756 88.3183 238.725C79.6573 239.693 68.5053 234.086 63.4072 222.828C58.3091 211.57 40.0024 145.715 40.0024 145.715L70.4315 137.13Z" fill="#455A64"/>
<path d="M145.57 118.806C142.529 118.965 139.531 119.485 136.62 120.352C131.84 121.985 128.842 124.919 128.668 124.688C130.667 122.245 133.347 120.453 136.359 119.543C139.285 118.372 142.5 118.127 145.57 118.806Z" fill="#263238"/>
<path d="M125.091 128.532C125.091 128.532 124.888 128.893 124.468 129.587L122.556 132.622C120.833 135.31 118.342 139.212 115.17 144.183L88.1587 186.092L87.8111 186.641L87.5794 186.034C82.3944 171.583 76.4274 154.877 69.9534 136.813L70.4313 137.058L39.727 146.192L40.0022 145.686C42.4499 154.024 44.9989 162.782 47.6059 171.699C51.1542 183.592 54.6881 195.197 58.3089 206.382C60.1773 211.932 61.9442 217.409 64.1022 222.553C66.2312 227.583 70.0982 231.687 74.9935 234.115C79.6281 236.485 84.8276 237.554 90.027 237.236H90.9684L91.7795 236.991C92.3299 236.73 92.8513 236.427 93.3582 236.08C93.8651 235.733 94.343 235.372 94.8065 234.967C95.2844 234.592 95.7624 234.201 96.2548 233.782C98.1086 232.149 99.8177 230.43 101.469 228.71C108.044 221.788 113.736 214.909 118.849 208.608C129.088 195.948 136.952 185.384 142.239 177.985C144.889 174.285 146.873 171.366 148.162 169.314C148.8 168.302 149.263 167.522 149.611 166.987C149.958 166.453 150.074 166.193 150.074 166.193C150.074 166.193 149.958 166.482 149.683 167.031C149.408 167.58 148.959 168.375 148.322 169.401C147.076 171.453 145.135 174.401 142.528 178.144C137.315 185.615 129.494 196.237 119.355 208.94C114.243 215.27 108.58 222.178 101.976 229.172C100.325 230.921 98.6011 232.655 96.7472 234.303C96.2838 234.722 95.8058 235.141 95.2989 235.531C94.8355 235.936 94.3575 236.311 93.8506 236.673C93.3147 237.048 92.7499 237.381 92.1561 237.655C91.823 237.756 91.4754 237.872 91.1422 237.944L90.1719 238.031C84.8276 238.378 79.4978 237.28 74.7328 234.852C69.6637 232.337 65.6664 228.088 63.4649 222.886C61.2345 217.654 59.4676 212.192 57.6717 206.642C54.0364 195.5 50.4301 183.91 46.9541 171.959C44.3037 163.057 41.7402 154.299 39.3505 145.946L39.2346 145.556L39.6256 145.455L70.3444 136.35L70.7065 136.249L70.8224 136.596L88.318 185.861H87.7532L114.982 144.053L122.527 132.492L124.309 129.529C124.83 128.864 125.091 128.532 125.091 128.532Z" fill="#263238"/>
<g opacity="0.3">
<path d="M118.893 228.912C117.995 228.146 116.85 227.742 115.663 227.77C95.5891 225.993 75.3996 225.689 55.2825 226.86L34.8467 242.439C34.6295 243.147 34.9192 243.898 35.5564 244.274C36.1937 244.606 36.9033 244.794 37.6275 244.794L53.559 246.24C58.4543 246.76 63.393 246.991 68.3173 246.933C71.3877 246.832 74.4582 246.485 77.5286 246.5C82.6267 246.745 87.6958 247.266 92.7359 248.032C96.7622 248.581 100.846 248.508 104.844 247.844C108.87 247.164 112.563 245.213 115.402 242.294C117.893 239.476 119.37 235.921 119.617 232.178C119.848 231.037 119.588 229.851 118.893 228.912Z" fill="black"/>
</g>
<path d="M119.196 226.875C118.559 226.557 110.159 223.146 110.159 223.146L99.3687 221.007L109.739 220.588L118.791 223.103C118.791 223.103 122.411 223.522 121.6 220.487C120.789 217.452 109.753 214.085 109.753 214.085L95.661 213.131C95.661 213.131 106.552 211.541 107.668 208.174C108.392 206.411 108.088 204.388 106.871 202.914C103.178 204.402 99.3687 205.631 95.5017 206.585C90.6643 207.596 85.9428 209.085 81.4096 211.05C78.2088 212.322 75.0659 213.767 72.0245 215.386L66.0429 236.152C66.0429 236.152 75.9639 242.381 87.1739 242.063C98.3838 241.745 108.305 245.358 109.753 244.346C111.201 243.335 111.346 241.586 109.753 240.777C107.016 239.968 104.206 239.39 101.367 239.028L95.5741 236.629C95.5741 236.629 115.59 238.392 117.183 237.583C118.776 236.774 120.384 235.675 119.746 233.912C119.428 232.93 118.544 232.222 117.502 232.164C117.502 232.164 121.847 232.323 121.673 230.56C121.412 229.042 120.5 227.698 119.196 226.875Z" fill="#AE7461"/>
<path d="M96.0085 228.999C97.1237 229.158 98.2534 229.245 99.3831 229.245C101.454 229.375 104.307 229.62 107.436 230.083C110.564 230.545 113.359 231.181 115.387 231.672C116.459 231.99 117.559 232.25 118.66 232.424C117.646 231.918 116.589 231.528 115.488 231.268C112.881 230.487 110.216 229.895 107.523 229.49C104.829 229.086 102.12 228.854 99.3976 228.825C98.2679 228.753 97.1237 228.811 96.0085 228.999Z" fill="#6F4439"/>
<path d="M36.6137 206.715L34.0212 151.799L28.228 126.74L7.77773 183L0.869263 208.203C-4.22881 232.063 14.3386 241.962 22.7244 241.658L67.6946 242.41L71.8223 214.504L36.6137 206.715Z" fill="#455A64"/>
<path d="M36.1348 206.729L33.6581 151.12L36.1348 206.729Z" fill="#285DA2"/>
<path d="M33.658 151.12C33.8753 151.12 34.6284 163.548 35.3091 178.91C35.9898 194.272 36.3664 206.715 36.1346 206.729C35.9029 206.744 35.1643 194.301 34.4836 178.939C33.8029 163.577 33.4263 151.134 33.658 151.12Z" fill="#263238"/>
<path d="M21.8262 241.528C22.1303 241.485 22.42 241.485 22.7241 241.528H25.2732L34.832 241.774L67.9116 242.872L67.506 243.219C68.3461 237.092 69.244 230.458 70.1854 223.565C70.6054 220.53 71.011 217.539 71.402 214.706L71.7206 215.154C63.8708 213.362 56.4554 211.729 49.7352 210.313C46.3896 209.619 43.2178 208.969 40.2343 208.434C37.5114 207.842 34.7451 207.538 31.9644 207.538C27.967 207.408 24.0276 208.405 20.5806 210.429C19.3785 211.252 18.2778 212.221 17.3219 213.319C17.5247 213.001 17.7419 212.697 17.9881 212.408C18.6978 211.585 19.5233 210.848 20.4213 210.226C23.8828 208.03 27.9091 206.902 32.0078 206.975C34.8176 206.946 37.6418 207.22 40.3936 207.784C43.3771 208.29 46.5634 208.911 49.938 209.59C56.6582 211.036 64.0735 212.567 71.9524 214.345L72.3145 214.432V214.793C71.9379 217.683 71.5179 220.574 71.1123 223.652C70.1565 230.545 69.244 237.193 68.3895 243.306V243.653H67.8247L34.7596 242.208L25.2007 241.731L22.6517 241.572C22.3765 241.572 22.1013 241.572 21.8262 241.528Z" fill="#263238"/>
<path d="M92.7498 204.532C92.4891 204.532 92.185 200.197 90.7367 194.951C89.2883 189.705 87.3186 185.803 87.5359 185.688C91.0698 191.309 92.8946 197.841 92.7498 204.475V204.532Z" fill="#263238"/>
<g opacity="0.3">
<path d="M35.6855 206.758C32.3399 205.616 28.8785 204.85 25.3735 204.46C21.8397 204.084 18.2768 204.821 15.1629 206.541C14.1491 207.09 13.3091 207.929 12.7732 208.955C12.2808 210.01 12.469 211.267 13.2656 212.134C14.0912 212.755 15.1919 212.914 16.1623 212.539C17.1181 212.177 18.0306 211.686 18.8561 211.093C23.5487 208.088 29.1971 206.917 34.7007 207.798" fill="black"/>
</g>
</svg>
