<svg width="24" height="24" viewBox="0 0 24 24" fill="none" xmlns="http://www.w3.org/2000/svg">
<path d="M19 14C19.21 14.0001 19.4146 13.934 19.585 13.8112C19.7553 13.6885 19.8827 13.5152 19.949 13.316L21.949 7.316C21.9991 7.16567 22.0127 7.00559 21.9888 6.84895C21.9648 6.69232 21.904 6.54362 21.8113 6.41509C21.7187 6.28657 21.5968 6.18192 21.4557 6.10975C21.3146 6.03758 21.1585 5.99996 21 6H7V2C7 1.73478 6.89464 1.48043 6.70711 1.29289C6.51957 1.10536 6.26522 1 6 1H3C2.73478 1 2.48043 1.10536 2.29289 1.29289C2.10536 1.48043 2 1.73478 2 2C2 2.26522 2.10536 2.51957 2.29289 2.70711C2.48043 2.89464 2.73478 3 3 3H5V17C5 17.2652 5.10536 17.5196 5.29289 17.7071C5.48043 17.8946 5.73478 18 6 18H18C18.2652 18 18.5196 17.8946 18.7071 17.7071C18.8946 17.5196 19 17.2652 19 17C19 16.7348 18.8946 16.4804 18.7071 16.2929C18.5196 16.1054 18.2652 16 18 16H7V14H19ZM7 8H19.613L18.279 12H7V8ZM6.5 19C6.79667 19 7.08668 19.088 7.33336 19.2528C7.58003 19.4176 7.77229 19.6519 7.88582 19.926C7.99935 20.2001 8.02906 20.5017 7.97118 20.7926C7.9133 21.0836 7.77044 21.3509 7.56066 21.5607C7.35088 21.7704 7.08361 21.9133 6.79264 21.9712C6.50166 22.0291 6.20006 21.9993 5.92597 21.8858C5.65189 21.7723 5.41762 21.58 5.2528 21.3334C5.08797 21.0867 5 20.7967 5 20.5C5 20.1022 5.15804 19.7206 5.43934 19.4393C5.72064 19.158 6.10218 19 6.5 19ZM16.5 19C16.7967 19 17.0867 19.088 17.3334 19.2528C17.58 19.4176 17.7723 19.6519 17.8858 19.926C17.9993 20.2001 18.0291 20.5017 17.9712 20.7926C17.9133 21.0836 17.7704 21.3509 17.5607 21.5607C17.3509 21.7704 17.0836 21.9133 16.7926 21.9712C16.5017 22.0291 16.2001 21.9993 15.926 21.8858C15.6519 21.7723 15.4176 21.58 15.2528 21.3334C15.088 21.0867 15 20.7967 15 20.5C15 20.1022 15.158 19.7206 15.4393 19.4393C15.7206 19.158 16.1022 19 16.5 19Z" fill="black"/>
</svg>
