<svg width="16" height="12" viewBox="0 0 16 12" fill="none" xmlns="http://www.w3.org/2000/svg">
<path d="M0.275564 5.56137C0.452061 5.3814 0.691411 5.2803 0.940978 5.2803C1.19054 5.2803 1.42989 5.3814 1.60639 5.56137L5.62993 9.66531L14.3763 0.298722C14.5483 0.114134 14.7851 0.00679257 15.0347 0.000311403C15.2843 -0.00616976 15.5262 0.0887406 15.7071 0.264163C15.8881 0.439585 15.9933 0.68115 15.9997 0.935716C16.0061 1.19028 15.913 1.437 15.741 1.62158L6.32923 11.7014C6.2426 11.7944 6.13858 11.8687 6.02332 11.92C5.90807 11.9713 5.7839 11.9985 5.65817 12H5.64687C5.39728 11.9999 5.15792 11.8988 4.98146 11.7187L0.275564 6.91879C0.0991205 6.73877 0 6.49463 0 6.24008C0 5.98553 0.0991205 5.74139 0.275564 5.56137Z" fill="white"/>
</svg>
