<svg width="18" height="17" viewBox="0 0 18 17" fill="none" xmlns="http://www.w3.org/2000/svg">
<path d="M0.75 8.5C0.75 10.1317 1.23385 11.7267 2.14038 13.0835C3.0469 14.4402 4.33537 15.4976 5.84286 16.122C7.35035 16.7464 9.00915 16.9098 10.6095 16.5915C12.2098 16.2731 13.6798 15.4874 14.8336 14.3336C15.9874 13.1798 16.7731 11.7098 17.0915 10.1095C17.4098 8.50915 17.2464 6.85035 16.622 5.34286C15.9976 3.83537 14.9402 2.5469 13.5835 1.64038C12.2267 0.733854 10.6317 0.25 9 0.25C6.81271 0.252426 4.7157 1.1224 3.16905 2.66905C1.6224 4.2157 0.752426 6.31271 0.75 8.5ZM9 2.08333C10.2691 2.08333 11.5097 2.45966 12.5649 3.16474C13.6201 3.86981 14.4426 4.87195 14.9282 6.04445C15.4139 7.21694 15.541 8.50712 15.2934 9.75183C15.0458 10.9965 14.4347 12.1399 13.5373 13.0373C12.6399 13.9347 11.4965 14.5458 10.2518 14.7934C9.00712 15.041 7.71694 14.9139 6.54445 14.4282C5.37195 13.9426 4.36981 13.1201 3.66474 12.0649C2.95966 11.0097 2.58333 9.76909 2.58333 8.5C2.58527 6.79879 3.26194 5.16781 4.46487 3.96487C5.66781 2.76194 7.29879 2.08527 9 2.08333ZM8.08333 8.5V4.1C8.08333 3.85688 8.17991 3.62373 8.35182 3.45182C8.52373 3.27991 8.75688 3.18333 9 3.18333C9.24311 3.18333 9.47627 3.27991 9.64818 3.45182C9.82009 3.62373 9.91666 3.85688 9.91666 4.1V7.58333H12.6667C12.9098 7.58333 13.1429 7.67991 13.3148 7.85182C13.4868 8.02373 13.5833 8.25688 13.5833 8.5C13.5833 8.74311 13.4868 8.97627 13.3148 9.14818C13.1429 9.32009 12.9098 9.41666 12.6667 9.41666H9C8.75688 9.41666 8.52373 9.32009 8.35182 9.14818C8.17991 8.97627 8.08333 8.74311 8.08333 8.5Z" fill="black"/>
</svg>
