<svg width="13" height="15" viewBox="0 0 13 15" fill="none" xmlns="http://www.w3.org/2000/svg">
<path d="M1 8.625H2.58325C2.53036 8.25228 2.50255 7.87644 2.5 7.5C2.50255 7.12356 2.53036 6.74771 2.58325 6.375H1C0.801088 6.375 0.610322 6.29598 0.46967 6.15533C0.329018 6.01468 0.25 5.82391 0.25 5.625C0.25 5.42609 0.329018 5.23532 0.46967 5.09467C0.610322 4.95402 0.801088 4.875 1 4.875H2.92825C3.31919 3.51175 4.13035 2.30663 5.24618 1.4313C6.36202 0.555977 7.72562 0.0550935 9.14275 3.06707e-07C10.078 -0.000299426 11.0003 0.219093 11.8353 0.6405C12.0133 0.729414 12.1487 0.885407 12.2117 1.07416C12.2747 1.26292 12.2602 1.46897 12.1713 1.647C12.0823 1.82503 11.9263 1.96044 11.7376 2.02345C11.5488 2.08647 11.3428 2.07191 11.1647 1.983C10.5379 1.66586 9.84528 1.50042 9.14275 1.5C8.1254 1.54222 7.14347 1.8855 6.3214 2.48633C5.49934 3.08716 4.87413 3.91849 4.525 4.875H8.5C8.69891 4.875 8.88968 4.95402 9.03033 5.09467C9.17098 5.23532 9.25 5.42609 9.25 5.625C9.25 5.82391 9.17098 6.01468 9.03033 6.15533C8.88968 6.29598 8.69891 6.375 8.5 6.375H4.09375C3.96874 7.11979 3.96874 7.88021 4.09375 8.625H7.75C7.94891 8.625 8.13968 8.70402 8.28033 8.84467C8.42098 8.98532 8.5 9.17609 8.5 9.375C8.5 9.57391 8.42098 9.76468 8.28033 9.90533C8.13968 10.046 7.94891 10.125 7.75 10.125H4.525C4.87413 11.0815 5.49934 11.9128 6.3214 12.5137C7.14347 13.1145 8.1254 13.4578 9.14275 13.5C9.84629 13.5001 10.54 13.3346 11.1677 13.017C11.3458 12.9281 11.5518 12.9135 11.7406 12.9765C11.9293 13.0396 12.0853 13.175 12.1742 13.353C12.2632 13.531 12.2777 13.7371 12.2147 13.9258C12.1517 14.1146 12.0163 14.2706 11.8383 14.3595C11.0033 14.7809 10.081 15.0003 9.14575 15C7.72862 14.9449 6.36502 14.444 5.24918 13.5687C4.13334 12.6934 3.32218 11.4883 2.93125 10.125H1C0.801088 10.125 0.610322 10.046 0.46967 9.90533C0.329018 9.76468 0.25 9.57391 0.25 9.375C0.25 9.17609 0.329018 8.98532 0.46967 8.84467C0.610322 8.70402 0.801088 8.625 1 8.625Z" fill="black"/>
</svg>
