<svg width="18" height="17" viewBox="0 0 18 17" fill="none" xmlns="http://www.w3.org/2000/svg">
<path d="M14.7975 11.9972C15.1687 11.5378 15.3723 10.9656 15.375 10.375C15.375 9.67881 15.0984 9.01113 14.6062 8.51884C14.1139 8.02656 13.4462 7.75 12.75 7.75C12.0538 7.75 11.3861 8.02656 10.8938 8.51884C10.4016 9.01113 10.125 9.67881 10.125 10.375C10.1277 10.9656 10.3313 11.5378 10.7025 11.9972C10.0145 12.3504 9.42844 12.8737 9 13.5175C8.57156 12.8737 7.98545 12.3504 7.2975 11.9972C7.66866 11.5378 7.87234 10.9656 7.875 10.375C7.875 9.67881 7.59844 9.01113 7.10616 8.51884C6.61387 8.02656 5.94619 7.75 5.25 7.75C4.55381 7.75 3.88613 8.02656 3.39384 8.51884C2.90156 9.01113 2.625 9.67881 2.625 10.375C2.62766 10.9656 2.83134 11.5378 3.2025 11.9972C2.46493 12.3741 1.84567 12.9472 1.41295 13.6535C0.980228 14.3597 0.750821 15.1717 0.75 16C0.75 16.1989 0.829018 16.3897 0.96967 16.5303C1.11032 16.671 1.30109 16.75 1.5 16.75H16.5C16.6989 16.75 16.8897 16.671 17.0303 16.5303C17.171 16.3897 17.25 16.1989 17.25 16C17.2492 15.1717 17.0198 14.3597 16.587 13.6535C16.1543 12.9472 15.5351 12.3741 14.7975 11.9972ZM5.25 9.25C5.4725 9.25 5.69001 9.31598 5.87502 9.4396C6.06002 9.56321 6.20422 9.73891 6.28936 9.94448C6.37451 10.15 6.39679 10.3762 6.35338 10.5945C6.30998 10.8127 6.20283 11.0132 6.0455 11.1705C5.88816 11.3278 5.68771 11.435 5.46948 11.4784C5.25125 11.5218 5.02505 11.4995 4.81948 11.4144C4.61391 11.3292 4.43821 11.185 4.3146 11C4.19098 10.815 4.125 10.5975 4.125 10.375C4.125 10.0766 4.24353 9.79048 4.4545 9.5795C4.66548 9.36853 4.95163 9.25 5.25 9.25ZM2.3445 15.25C2.51025 14.6054 2.88567 14.0341 3.41167 13.6263C3.93768 13.2184 4.58439 12.997 5.25 12.997C5.91561 12.997 6.56232 13.2184 7.08833 13.6263C7.61433 14.0341 7.98975 14.6054 8.1555 15.25H2.3445ZM12.75 9.25C12.9725 9.25 13.19 9.31598 13.375 9.4396C13.56 9.56321 13.7042 9.73891 13.7894 9.94448C13.8745 10.15 13.8968 10.3762 13.8534 10.5945C13.81 10.8127 13.7028 11.0132 13.5455 11.1705C13.3882 11.3278 13.1877 11.435 12.9695 11.4784C12.7512 11.5218 12.525 11.4995 12.3195 11.4144C12.1139 11.3292 11.9382 11.185 11.8146 11C11.691 10.815 11.625 10.5975 11.625 10.375C11.625 10.0766 11.7435 9.79048 11.9545 9.5795C12.1655 9.36853 12.4516 9.25 12.75 9.25ZM9.84525 15.25C10.0115 14.606 10.3871 14.0356 10.9129 13.6283C11.4387 13.221 12.0849 13 12.75 13C13.4151 13 14.0613 13.221 14.5871 13.6283C15.1129 14.0356 15.4885 14.606 15.6547 15.25H9.84525ZM5.4 5.8C5.28065 5.95913 5.22941 6.15915 5.25754 6.35607C5.28567 6.55298 5.39087 6.73065 5.55 6.85C5.70913 6.96935 5.90915 7.02059 6.10607 6.99246C6.30298 6.96433 6.48065 6.85913 6.6 6.7C6.87944 6.32741 7.24179 6.025 7.65836 5.81672C8.07493 5.60844 8.53426 5.5 9 5.5C9.46574 5.5 9.92507 5.60844 10.3416 5.81672C10.7582 6.025 11.1206 6.32741 11.4 6.7C11.4591 6.77879 11.5331 6.84518 11.6179 6.89536C11.7026 6.94554 11.7964 6.97853 11.8939 6.99246C11.9914 7.00639 12.0907 7.00098 12.1861 6.97654C12.2815 6.95209 12.3712 6.90909 12.45 6.85C12.5288 6.79091 12.5952 6.71687 12.6454 6.63212C12.6955 6.54737 12.7285 6.45357 12.7425 6.35607C12.7564 6.25856 12.751 6.15927 12.7265 6.06386C12.7021 5.96845 12.6591 5.87879 12.6 5.8C12.1898 5.25243 11.6601 4.8056 11.0512 4.4935C11.4204 4.03463 11.6227 3.46394 11.625 2.875C11.625 2.17881 11.3484 1.51113 10.8562 1.01884C10.3639 0.526562 9.69619 0.25 9 0.25C8.30381 0.25 7.63613 0.526562 7.14384 1.01884C6.65156 1.51113 6.375 2.17881 6.375 2.875C6.37744 3.46368 6.57974 4.03408 6.94875 4.49275C6.33973 4.80493 5.81001 5.25204 5.4 5.8ZM9 1.75C9.2225 1.75 9.44001 1.81598 9.62502 1.9396C9.81002 2.06321 9.95422 2.23891 10.0394 2.44448C10.1245 2.65005 10.1468 2.87625 10.1034 3.09448C10.06 3.31271 9.95283 3.51316 9.7955 3.6705C9.63816 3.82783 9.43771 3.93498 9.21948 3.97838C9.00125 4.02179 8.77505 3.99951 8.56948 3.91436C8.36391 3.82922 8.18821 3.68502 8.0646 3.50002C7.94098 3.31501 7.875 3.0975 7.875 2.875C7.875 2.57663 7.99353 2.29048 8.2045 2.0795C8.41548 1.86853 8.70163 1.75 9 1.75Z" fill="black"/>
</svg>
