<svg width="18" height="23" viewBox="0 0 18 23" fill="" xmlns="http://www.w3.org/2000/svg">
<path d="M17.992 9.98C17.9951 8.79928 17.7657 7.62951 17.3168 6.53746C16.8678 5.44542 16.2082 4.45249 15.3756 3.61537C13.6939 1.92473 11.4095 0.971363 9.02499 0.964998C6.64043 0.958633 4.351 1.89979 2.66036 3.58143C0.969721 5.26307 0.0163532 7.54744 0.00998798 9.932C-0.0111291 12.7022 0.793046 15.416 2.32002 17.7275C3.847 20.039 6.02763 21.8435 8.58399 22.911C8.71467 22.9702 8.85654 23.0005 8.99999 23C9.14448 23.0003 9.28735 22.9696 9.41899 22.91C11.9676 21.8457 14.1428 20.0488 15.669 17.7469C17.1952 15.445 18.0037 12.7418 17.992 9.98ZM8.99999 20.9C6.89193 19.9719 5.10429 18.4429 3.86066 16.5041C2.61702 14.5654 1.9726 12.303 2.00799 10C2.00799 9.0818 2.18884 8.17258 2.54022 7.32428C2.8916 6.47597 3.40663 5.70517 4.0559 5.05591C4.70516 4.40664 5.47596 3.89161 6.32427 3.54023C7.17257 3.18885 8.08179 3.008 8.99999 3.008C9.91819 3.008 10.8274 3.18885 11.6757 3.54023C12.524 3.89161 13.2948 4.40664 13.9441 5.05591C14.5933 5.70517 15.1084 6.47597 15.4598 7.32428C15.8111 8.17258 15.992 9.0818 15.992 10C15.992 10.021 15.992 10.045 15.992 10.065C16.0162 12.3574 15.3665 14.6064 14.1234 16.5327C12.8804 18.459 11.0988 19.9776 8.99999 20.9ZM11 10C11 10.3956 10.8827 10.7822 10.6629 11.1111C10.4432 11.44 10.1308 11.6964 9.76535 11.8478C9.3999 11.9991 8.99777 12.0387 8.60981 11.9616C8.22184 11.8844 7.86548 11.6939 7.58577 11.4142C7.30607 11.1345 7.11559 10.7781 7.03842 10.3902C6.96125 10.0022 7.00085 9.60008 7.15223 9.23463C7.3036 8.86918 7.55995 8.55682 7.88885 8.33706C8.21775 8.1173 8.60443 8 8.99999 8C9.53042 8 10.0391 8.21071 10.4142 8.58578C10.7893 8.96086 11 9.46957 11 10Z" fill=""/>
</svg>
