<svg width="16" height="14" viewBox="0 0 16 14" fill="" xmlns="http://www.w3.org/2000/svg">
<path d="M13.5 5C14.8807 5 16 3.88071 16 2.5C16 1.11929 14.8807 0 13.5 0C12.1193 0 11 1.11929 11 2.5C11 2.57551 11.0033 2.65023 11.0099 2.72404L11.0123 2.75C11.0701 3.33179 11.3273 3.8549 11.7146 4.25C12.1684 4.71284 12.8007 5 13.5 5Z" fill="#1E1E1E"/>
<path d="M0.75 2.25H9.50769C9.50259 2.33268 9.5 2.41604 9.5 2.5C9.5 2.62081 9.50536 2.74037 9.51584 2.85846L9.51975 2.9C9.54892 3.19385 9.6099 3.47835 9.69919 3.75H0.75C0.335786 3.75 0 3.41421 0 3C0 2.58579 0.335786 2.25 0.75 2.25Z" fill="#1E1E1E"/>
<path d="M3.25003 7.25C2.83581 7.25 2.50003 7.58579 2.50003 8C2.50003 8.41421 2.83581 8.75 3.25003 8.75H12.75C13.1642 8.75 13.5 8.41421 13.5 8C13.5 7.58579 13.1642 7.25 12.75 7.25H3.25003Z" fill="#1E1E1E"/>
<path d="M5.75003 13C5.75003 12.5858 6.08581 12.25 6.50003 12.25H9.50003C9.91424 12.25 10.25 12.5858 10.25 13C10.25 13.4142 9.91424 13.75 9.50003 13.75H6.50003C6.08581 13.75 5.75003 13.4142 5.75003 13Z" fill=""/>
</svg>
