<svg width="20" height="20" viewBox="0 0 20 20" fill="none" xmlns="http://www.w3.org/2000/svg">
<path d="M18.3327 10.8333V16.6667C18.3327 16.8877 18.2449 17.0996 18.0886 17.2559C17.9323 17.4122 17.7204 17.5 17.4993 17.5H2.49935C2.27834 17.5 2.06637 17.4122 1.91009 17.2559C1.75381 17.0996 1.66602 16.8877 1.66602 16.6667V10.8333C1.66602 10.6123 1.75381 10.4004 1.91009 10.2441C2.06637 10.0878 2.27834 10 2.49935 10C2.72036 10 2.93232 10.0878 3.0886 10.2441C3.24488 10.4004 3.33268 10.6123 3.33268 10.8333V15.8333H16.666V10.8333C16.666 10.6123 16.7538 10.4004 16.9101 10.2441C17.0664 10.0878 17.2783 10 17.4993 10C17.7204 10 17.9323 10.0878 18.0886 10.2441C18.2449 10.4004 18.3327 10.6123 18.3327 10.8333ZM9.99935 2.5C9.77833 2.5 9.56637 2.5878 9.41009 2.74408C9.25381 2.90036 9.16602 3.11232 9.16602 3.33333V6.66667H5.83268C5.61167 6.66667 5.39971 6.75446 5.24343 6.91074C5.08715 7.06702 4.99935 7.27899 4.99935 7.5C4.99935 7.72101 5.08715 7.93297 5.24343 8.08926C5.39971 8.24554 5.61167 8.33333 5.83268 8.33333H9.16602V11.6667C9.16602 11.8877 9.25381 12.0996 9.41009 12.2559C9.56637 12.4122 9.77833 12.5 9.99935 12.5C10.2204 12.5 10.4323 12.4122 10.5886 12.2559C10.7449 12.0996 10.8327 11.8877 10.8327 11.6667V8.33333H14.166C14.387 8.33333 14.599 8.24554 14.7553 8.08926C14.9116 7.93297 14.9993 7.72101 14.9993 7.5C14.9993 7.27899 14.9116 7.06702 14.7553 6.91074C14.599 6.75446 14.387 6.66667 14.166 6.66667H10.8327V3.33333C10.8327 3.11232 10.7449 2.90036 10.5886 2.74408C10.4323 2.5878 10.2204 2.5 9.99935 2.5Z" fill="white"/>
</svg>
