<svg width="18" height="16" viewBox="0 0 18 16" fill="" xmlns="http://www.w3.org/2000/svg">
<path d="M17.3334 8.83333V14.6667C17.3334 14.8877 17.2456 15.0996 17.0893 15.2559C16.933 15.4122 16.721 15.5 16.5 15.5H1.50002C1.27901 15.5 1.06704 15.4122 0.910765 15.2559C0.754484 15.0996 0.666687 14.8877 0.666687 14.6667V8.83333C0.666687 8.61232 0.754484 8.40036 0.910765 8.24408C1.06704 8.0878 1.27901 8 1.50002 8C1.72103 8 1.933 8.0878 2.08928 8.24408C2.24556 8.40036 2.33335 8.61232 2.33335 8.83333V13.8333H15.6667V8.83333C15.6667 8.61232 15.7545 8.40036 15.9108 8.24408C16.067 8.0878 16.279 8 16.5 8C16.721 8 16.933 8.0878 17.0893 8.24408C17.2456 8.40036 17.3334 8.61232 17.3334 8.83333ZM9.00002 0.5C8.77901 0.5 8.56705 0.587797 8.41076 0.744078C8.25448 0.900358 8.16669 1.11232 8.16669 1.33333V4.66667H4.83335C4.61234 4.66667 4.40038 4.75446 4.2441 4.91074C4.08782 5.06702 4.00002 5.27899 4.00002 5.5C4.00002 5.72101 4.08782 5.93297 4.2441 6.08926C4.40038 6.24554 4.61234 6.33333 4.83335 6.33333H8.16669V9.66667C8.16669 9.88768 8.25448 10.0996 8.41076 10.2559C8.56705 10.4122 8.77901 10.5 9.00002 10.5C9.22103 10.5 9.43299 10.4122 9.58928 10.2559C9.74556 10.0996 9.83335 9.88768 9.83335 9.66667V6.33333H13.1667C13.3877 6.33333 13.5997 6.24554 13.7559 6.08926C13.9122 5.93297 14 5.72101 14 5.5C14 5.27899 13.9122 5.06702 13.7559 4.91074C13.5997 4.75446 13.3877 4.66667 13.1667 4.66667H9.83335V1.33333C9.83335 1.11232 9.74556 0.900358 9.58928 0.744078C9.43299 0.587797 9.22103 0.5 9.00002 0.5Z" fill=""/>
</svg>
