<svg width="15" height="14" viewBox="0 0 15 14" fill="none" xmlns="http://www.w3.org/2000/svg">
<path d="M0.912615 12.4979L6.41899 7L0.912615 1.50207C0.753227 1.3373 0.665032 1.11661 0.667025 0.887538C0.669019 0.658467 0.761042 0.439343 0.923274 0.27736C1.08551 0.115377 1.30497 0.0234947 1.53439 0.0215042C1.76381 0.0195136 1.98484 0.107574 2.14987 0.266718L7.65624 5.76465L13.1626 0.266718C13.2433 0.183274 13.3399 0.116717 13.4466 0.0709295C13.5534 0.025142 13.6682 0.00104103 13.7844 3.29867e-05C13.9006 -0.000975054 14.0158 0.0211298 14.1233 0.0650581C14.2309 0.108986 14.3286 0.173858 14.4107 0.255888C14.4929 0.337918 14.5578 0.435464 14.6018 0.542834C14.6458 0.650203 14.668 0.765246 14.667 0.88125C14.6659 0.997253 14.6418 1.11189 14.596 1.21848C14.5501 1.32507 14.4834 1.42148 14.3999 1.50207L8.89349 7L14.3999 12.4979C14.4834 12.5785 14.5501 12.6749 14.596 12.7815C14.6418 12.8881 14.6659 13.0027 14.667 13.1187C14.668 13.2348 14.6458 13.3498 14.6018 13.4572C14.5578 13.5645 14.4929 13.6621 14.4107 13.7441C14.3286 13.8261 14.2309 13.891 14.1233 13.9349C14.0158 13.9789 13.9006 14.001 13.7844 14C13.6682 13.999 13.5534 13.9749 13.4466 13.9291C13.3399 13.8833 13.2433 13.8167 13.1626 13.7333L7.65624 8.23535L2.14987 13.7333C1.98484 13.8924 1.76381 13.9805 1.53439 13.9785C1.30497 13.9765 1.08551 13.8846 0.923274 13.7226C0.761042 13.5607 0.669019 13.3415 0.667025 13.1125C0.665032 12.8834 0.753227 12.6627 0.912615 12.4979Z" fill="white"/>
</svg>
