<svg width="36" height="36" viewBox="0 0 36 36" fill="none" xmlns="http://www.w3.org/2000/svg">
<path d="M31.5 6H4.5C4.10218 6 3.72064 6.15804 3.43934 6.43934C3.15804 6.72064 3 7.10218 3 7.5V28.5C3 28.8978 3.15804 29.2794 3.43934 29.5607C3.72064 29.842 4.10218 30 4.5 30H31.5C31.8978 30 32.2794 29.842 32.5607 29.5607C32.842 29.2794 33 28.8978 33 28.5V7.5C33 7.10218 32.842 6.72064 32.5607 6.43934C32.2794 6.15804 31.8978 6 31.5 6ZM10.5 10.5C11.0933 10.5 11.6734 10.6759 12.1667 11.0056C12.6601 11.3352 13.0446 11.8038 13.2716 12.352C13.4987 12.9001 13.5581 13.5033 13.4424 14.0853C13.3266 14.6672 13.0409 15.2018 12.6213 15.6213C12.2018 16.0409 11.6672 16.3266 11.0853 16.4424C10.5033 16.5581 9.90013 16.4987 9.35195 16.2716C8.80377 16.0446 8.33524 15.6601 8.00559 15.1667C7.67595 14.6734 7.5 14.0933 7.5 13.5C7.5 12.7044 7.81607 11.9413 8.37868 11.3787C8.94129 10.8161 9.70435 10.5 10.5 10.5ZM30 27H6V24.4995L12 19.5L16.2855 22.7145L24 15L30 22.9995V27Z" fill="#FFD07B"/>
</svg>
