<svg width="19" height="20" viewBox="0 0 19 20" fill="" xmlns="http://www.w3.org/2000/svg">
<path d="M0.564364 7.38151C1.67186 11.7815 7.71936 17.8332 12.1185 18.9357C12.7124 19.0862 13.3226 19.1629 13.9352 19.164C15.0994 19.1635 16.2457 18.8773 17.2735 18.3307C17.6337 18.1426 17.9445 17.8724 18.181 17.542C18.4176 17.2117 18.5731 16.8303 18.635 16.4287C18.697 16.0272 18.6637 15.6167 18.5378 15.2304C18.4119 14.8441 18.1969 14.4928 17.9102 14.2048L16.1719 12.4665C15.8034 12.0982 15.3325 11.8494 14.8205 11.7526C14.3086 11.6558 13.7794 11.7156 13.3019 11.924C12.8463 12.1207 12.4308 12.3995 12.076 12.7465C11.9277 12.894 11.6544 12.9173 11.2619 12.8107C10.2329 12.3925 9.29807 11.7724 8.5126 10.9871C7.72713 10.2018 7.10691 9.26709 6.68853 8.23818C6.58353 7.84568 6.6052 7.57151 6.75353 7.42401C7.10089 7.06876 7.37997 6.65268 7.57686 6.19651C7.78482 5.7192 7.84428 5.19034 7.74753 4.67876C7.65077 4.16719 7.40227 3.69658 7.03436 3.32818L5.29603 1.59068C5.0114 1.30256 4.66233 1.08625 4.27764 0.959616C3.89294 0.832978 3.48365 0.799637 3.08353 0.862344C2.67888 0.921769 2.29411 1.07643 1.9609 1.31359C1.62768 1.55075 1.35554 1.86364 1.16686 2.22651C0.327448 3.80873 0.112437 5.64837 0.564364 7.38151ZM2.64436 2.99984C2.71239 2.86963 2.81032 2.75741 2.93011 2.67237C3.04991 2.58734 3.18817 2.53193 3.33353 2.51068C3.37955 2.50334 3.42609 2.49972 3.4727 2.49984C3.59267 2.4998 3.71146 2.52358 3.82218 2.56978C3.93289 2.61598 4.03334 2.6837 4.1177 2.76901L5.8552 4.50651C5.98586 4.63564 6.07471 4.80106 6.11023 4.9813C6.14574 5.16154 6.12628 5.3483 6.05436 5.51734C5.94056 5.78864 5.77817 6.03688 5.5752 6.24984C5.27713 6.5674 5.07328 6.96162 4.98645 7.38841C4.89962 7.8152 4.93323 8.25773 5.08353 8.66651C5.6852 10.9165 8.5877 13.8157 10.8335 14.4165C11.2439 14.5665 11.688 14.5992 12.1159 14.5109C12.5438 14.4226 12.9386 14.2167 13.256 13.9165C13.4678 13.7137 13.7145 13.5511 13.9844 13.4365C14.1535 13.3644 14.3404 13.3449 14.5209 13.3804C14.7013 13.4159 14.8668 13.5048 14.996 13.6357L16.7335 15.3732C16.8357 15.4742 16.9123 15.5981 16.9572 15.7346C17.0021 15.871 17.014 16.0162 16.9919 16.1582C16.9702 16.3037 16.9143 16.4421 16.8286 16.5617C16.743 16.6814 16.6301 16.779 16.4994 16.8465C15.2826 17.5004 13.8623 17.6661 12.5277 17.3098C8.74103 16.3673 3.13353 10.7598 2.1802 6.97484C1.82439 5.63899 1.99034 4.21778 2.64436 2.99984Z" fill="white"/>
</svg>
