<svg width="22" height="22" viewBox="0 0 22 22" fill="none" xmlns="http://www.w3.org/2000/svg">
<path d="M20.1667 4.58505H15.5834V1.83505C15.5834 1.59193 15.4868 1.35877 15.3149 1.18687C15.143 1.01496 14.9099 0.918381 14.6667 0.918381H7.33341C7.0903 0.918381 6.85714 1.01496 6.68523 1.18687C6.51333 1.35877 6.41675 1.59193 6.41675 1.83505V4.58505H1.83341C1.5903 4.58505 1.35714 4.68162 1.18523 4.85353C1.01333 5.02544 0.916748 5.2586 0.916748 5.50171C0.916748 5.74483 1.01333 5.97799 1.18523 6.14989C1.35714 6.3218 1.5903 6.41838 1.83341 6.41838H2.85733L4.59075 20.282C4.61845 20.5037 4.72614 20.7076 4.89358 20.8555C5.06102 21.0034 5.2767 21.085 5.50008 21.085H16.5001C16.7235 21.085 16.9391 21.0034 17.1066 20.8555C17.274 20.7076 17.3817 20.5037 17.4094 20.282L19.1428 6.41838H20.1667C20.4099 6.41838 20.643 6.3218 20.8149 6.14989C20.9868 5.97799 21.0834 5.74483 21.0834 5.50171C21.0834 5.2586 20.9868 5.02544 20.8149 4.85353C20.643 4.68162 20.4099 4.58505 20.1667 4.58505ZM8.25008 2.75171H13.7501V4.58505H8.25008V2.75171ZM15.6907 19.2517H6.3095L4.70533 6.41838H17.2948L15.6907 19.2517Z" fill="#285DA2"/>
</svg>
