<svg width="20" height="20" viewBox="0 0 20 20" fill="" xmlns="http://www.w3.org/2000/svg">
<path d="M16.6663 2.5H3.33301C2.66997 2.5 2.03408 2.76339 1.56524 3.23223C1.0964 3.70107 0.833008 4.33696 0.833008 5V15C0.833008 15.663 1.0964 16.2989 1.56524 16.7678C2.03408 17.2366 2.66997 17.5 3.33301 17.5H16.6663C17.3294 17.5 17.9653 17.2366 18.4341 16.7678C18.903 16.2989 19.1663 15.663 19.1663 15V5C19.1663 4.33696 18.903 3.70107 18.4341 3.23223C17.9653 2.76339 17.3294 2.5 16.6663 2.5ZM17.4997 15C17.4997 15.221 17.4119 15.433 17.2556 15.5893C17.0993 15.7455 16.8874 15.8333 16.6663 15.8333H3.33301C3.11199 15.8333 2.90003 15.7455 2.74375 15.5893C2.58747 15.433 2.49967 15.221 2.49967 15V5C2.49967 4.77899 2.58747 4.56702 2.74375 4.41074C2.90003 4.25446 3.11199 4.16667 3.33301 4.16667H16.6663C16.8874 4.16667 17.0993 4.25446 17.2556 4.41074C17.4119 4.56702 17.4997 4.77899 17.4997 5V15ZM13.9222 9.41083C14.0018 9.48771 14.0653 9.57966 14.1089 9.68133C14.1526 9.783 14.1756 9.89235 14.1766 10.003C14.1775 10.1136 14.1564 10.2234 14.1145 10.3258C14.0726 10.4282 14.0107 10.5213 13.9325 10.5995C13.8543 10.6777 13.7612 10.7396 13.6588 10.7815C13.5564 10.8234 13.4467 10.8445 13.336 10.8435C13.2254 10.8426 13.116 10.8196 13.0143 10.7759C12.9127 10.7322 12.8207 10.6688 12.7438 10.5892L10.833 8.67833V13.3333C10.833 13.5543 10.7452 13.7663 10.5889 13.9226C10.4327 14.0789 10.2207 14.1667 9.99967 14.1667C9.77866 14.1667 9.5667 14.0789 9.41042 13.9226C9.25414 13.7663 9.16634 13.5543 9.16634 13.3333V8.67833L7.25551 10.5892C7.17864 10.6688 7.08668 10.7322 6.98501 10.7759C6.88334 10.8196 6.77399 10.8426 6.66334 10.8435C6.55269 10.8445 6.44296 10.8234 6.34055 10.7815C6.23813 10.7396 6.14509 10.6777 6.06685 10.5995C5.9886 10.5213 5.92672 10.4282 5.88482 10.3258C5.84292 10.2234 5.82184 10.1136 5.8228 10.003C5.82376 9.89235 5.84675 9.783 5.89042 9.68133C5.9341 9.57966 5.99758 9.48771 6.07718 9.41083L9.41051 6.0775C9.56678 5.92127 9.7787 5.83351 9.99967 5.83351C10.2206 5.83351 10.4326 5.92127 10.5888 6.0775L13.9222 9.41083Z" fill="white"/>
</svg>
