<svg width="22" height="22" viewBox="0 0 22 22" fill="none" xmlns="http://www.w3.org/2000/svg">
<g opacity="0.5" clip-path="url(#clip0_924_2529)">
<path d="M21.0182 6.07563L19.1849 1.49229C19.1167 1.32222 18.9992 1.17648 18.8474 1.07387C18.6956 0.971254 18.5165 0.916486 18.3333 0.916626H3.66666C3.48344 0.916486 3.30438 0.971254 3.15258 1.07387C3.00079 1.17648 2.88323 1.32222 2.81507 1.49229L0.98174 6.07563C0.938781 6.18418 0.9167 6.29988 0.916656 6.41663V20.1666C0.916656 20.4097 1.01323 20.6429 1.18514 20.8148C1.35705 20.9867 1.59021 21.0833 1.83332 21.0833H20.1667C20.4098 21.0833 20.6429 20.9867 20.8148 20.8148C20.9867 20.6429 21.0833 20.4097 21.0833 20.1666V6.41663C21.0833 6.29988 21.0612 6.18418 21.0182 6.07563ZM4.28724 2.74996H17.7127L18.8127 5.49996H3.18724L4.28724 2.74996ZM2.74999 19.25V7.33329H19.25V19.25H2.74999ZM14.3981 12.1852C14.4856 12.2698 14.5555 12.3709 14.6035 12.4828C14.6515 12.5946 14.6768 12.7149 14.6779 12.8366C14.6789 12.9583 14.6557 13.079 14.6097 13.1917C14.5636 13.3043 14.4955 13.4067 14.4094 13.4927C14.3234 13.5788 14.221 13.6469 14.1084 13.693C13.9957 13.7391 13.875 13.7622 13.7533 13.7612C13.6316 13.7601 13.5113 13.7348 13.3995 13.6868C13.2876 13.6388 13.1865 13.5689 13.1019 13.4814L11.9167 12.2961V16.5C11.9167 16.7431 11.8201 16.9762 11.6482 17.1481C11.4763 17.32 11.2431 17.4166 11 17.4166C10.7569 17.4166 10.5237 17.32 10.3518 17.1481C10.1799 16.9762 10.0833 16.7431 10.0833 16.5V12.2961L8.89807 13.4814C8.72519 13.6484 8.49364 13.7407 8.25329 13.7387C8.01294 13.7366 7.78303 13.6402 7.61307 13.4702C7.44312 13.3003 7.34671 13.0703 7.34462 12.83C7.34253 12.5896 7.43493 12.3581 7.60191 12.1852L10.3519 9.43521C10.5238 9.26336 10.7569 9.16682 11 9.16682C11.2431 9.16682 11.4762 9.26336 11.6481 9.43521L14.3981 12.1852Z" fill="black"/>
</g>
<defs>
<clipPath id="clip0_924_2529">
<rect width="22" height="22" fill="white"/>
</clipPath>
</defs>
</svg>
