<svg width="20" height="22" viewBox="0 0 20 22" fill="" xmlns="http://www.w3.org/2000/svg">
<path d="M6.06475 7.98485L3.96283 10.0868H14.5833C14.8264 10.0868 15.0596 10.1833 15.2315 10.3553C15.4034 10.5272 15.5 10.7603 15.5 11.0034C15.5 11.2466 15.4034 11.4797 15.2315 11.6516C15.0596 11.8235 14.8264 11.9201 14.5833 11.9201H3.96283L6.06475 14.022C6.1523 14.1066 6.22213 14.2077 6.27017 14.3196C6.31822 14.4314 6.3435 14.5517 6.34456 14.6734C6.34562 14.7951 6.32242 14.9158 6.27633 15.0285C6.23024 15.1411 6.16218 15.2435 6.07611 15.3295C5.99004 15.4156 5.88769 15.4837 5.77504 15.5298C5.66238 15.5759 5.54168 15.5991 5.41996 15.598C5.29825 15.5969 5.17796 15.5717 5.06613 15.5236C4.95429 15.4756 4.85314 15.4057 4.76858 15.3182L1.10191 11.6515C0.930066 11.4796 0.833527 11.2465 0.833527 11.0034C0.833527 10.7604 0.930066 10.5273 1.10191 10.3554L4.76858 6.68869C4.85314 6.60114 4.95429 6.5313 5.06613 6.48326C5.17796 6.43522 5.29825 6.40993 5.41996 6.40887C5.54168 6.40782 5.66238 6.43101 5.77504 6.4771C5.88769 6.52319 5.99004 6.59126 6.07611 6.67733C6.16218 6.76339 6.23024 6.86574 6.27633 6.9784C6.32242 7.09105 6.34562 7.21176 6.34456 7.33347C6.3435 7.45519 6.31822 7.57547 6.27017 7.68731C6.22213 7.79915 6.1523 7.90029 6.06475 7.98485ZM18.25 0.920105H10.9167C10.6735 0.920105 10.4404 1.01668 10.2685 1.18859C10.0966 1.3605 10 1.59366 10 1.83677C10 2.07989 10.0966 2.31304 10.2685 2.48495C10.4404 2.65686 10.6735 2.75344 10.9167 2.75344H17.3333V19.2534H10.9167C10.6735 19.2534 10.4404 19.35 10.2685 19.5219C10.0966 19.6938 10 19.927 10 20.1701C10 20.4132 10.0966 20.6464 10.2685 20.8183C10.4404 20.9902 10.6735 21.0868 10.9167 21.0868H18.25C18.4931 21.0868 18.7263 20.9902 18.8982 20.8183C19.0701 20.6464 19.1667 20.4132 19.1667 20.1701V1.83677C19.1667 1.59366 19.0701 1.3605 18.8982 1.18859C18.7263 1.01668 18.4931 0.920105 18.25 0.920105Z" fill="#285DA2"/>
</svg>
