<svg width="36" height="36" viewBox="0 0 36 36" fill="none" xmlns="http://www.w3.org/2000/svg">
<path d="M30 10.5H18.4635C18.3243 10.5 18.1879 10.4613 18.0695 10.3882C17.9511 10.315 17.8553 10.2104 17.793 10.086L15.414 5.3295C15.2895 5.08038 15.0981 4.87083 14.8613 4.72433C14.6244 4.57782 14.3515 4.50015 14.073 4.5H6C5.60218 4.5 5.22064 4.65804 4.93934 4.93934C4.65804 5.22064 4.5 5.60218 4.5 6V30C4.5 30.3978 4.65804 30.7794 4.93934 31.0607C5.22064 31.342 5.60218 31.5 6 31.5H30C30.3978 31.5 30.7794 31.342 31.0607 31.0607C31.342 30.7794 31.5 30.3978 31.5 30V12C31.5 11.6022 31.342 11.2206 31.0607 10.9393C30.7794 10.658 30.3978 10.5 30 10.5ZM22.5 22.5H19.5V25.5C19.5 25.8978 19.342 26.2794 19.0607 26.5607C18.7794 26.842 18.3978 27 18 27C17.6022 27 17.2206 26.842 16.9393 26.5607C16.658 26.2794 16.5 25.8978 16.5 25.5V22.5H13.5C13.1022 22.5 12.7206 22.342 12.4393 22.0607C12.158 21.7794 12 21.3978 12 21C12 20.6022 12.158 20.2206 12.4393 19.9393C12.7206 19.658 13.1022 19.5 13.5 19.5H16.5V16.5C16.5 16.1022 16.658 15.7206 16.9393 15.4393C17.2206 15.158 17.6022 15 18 15C18.3978 15 18.7794 15.158 19.0607 15.4393C19.342 15.7206 19.5 16.1022 19.5 16.5V19.5H22.5C22.8978 19.5 23.2794 19.658 23.5607 19.9393C23.842 20.2206 24 20.6022 24 21C24 21.3978 23.842 21.7794 23.5607 22.0607C23.2794 22.342 22.8978 22.5 22.5 22.5Z" fill="#FFD07B"/>
</svg>
