<svg width="44" height="44" viewBox="0 0 44 44" fill="none" xmlns="http://www.w3.org/2000/svg">
<circle opacity="0.1" cx="22" cy="22" r="22" fill="#285DA2"/>
<path d="M21.05 24.95L19.2 26.8C18.81 27.19 18.19 27.19 17.79 26.81C17.68 26.7 17.57 26.6 17.46 26.49C16.43 25.45 15.5 24.36 14.67 23.22C13.85 22.08 13.19 20.94 12.71 19.81C12.24 18.67 12 17.58 12 16.54C12 15.86 12.12 15.21 12.36 14.61C12.6 14 12.98 13.44 13.51 12.94C14.15 12.31 14.85 12 15.59 12C15.87 12 16.15 12.06 16.4 12.18C16.66 12.3 16.89 12.48 17.07 12.74L19.39 16.01C19.57 16.26 19.7 16.49 19.79 16.71C19.88 16.92 19.93 17.13 19.93 17.32C19.93 17.56 19.86 17.8 19.72 18.03C19.59 18.26 19.4 18.5 19.16 18.74L18.4 19.53C18.29 19.64 18.24 19.77 18.24 19.93C18.24 20.01 18.25 20.08 18.27 20.16C18.3 20.24 18.33 20.3 18.35 20.36C18.53 20.69 18.84 21.12 19.28 21.64C19.73 22.16 20.21 22.69 20.73 23.22C20.83 23.32 20.94 23.42 21.04 23.52C21.44 23.91 21.45 24.55 21.05 24.95Z" fill="#285DA2"/>
<path d="M31.9701 28.33C31.9701 28.61 31.9201 28.9 31.8201 29.18C31.7901 29.26 31.7601 29.34 31.7201 29.42C31.5501 29.78 31.3301 30.12 31.0401 30.44C30.5501 30.98 30.0101 31.37 29.4001 31.62C29.3901 31.62 29.3801 31.63 29.3701 31.63C28.7801 31.87 28.1401 32 27.4501 32C26.4301 32 25.3401 31.76 24.1901 31.27C23.0401 30.78 21.8901 30.12 20.7501 29.29C20.3601 29 19.9701 28.71 19.6001 28.4L22.8701 25.13C23.1501 25.34 23.4001 25.5 23.6101 25.61C23.6601 25.63 23.7201 25.66 23.7901 25.69C23.8701 25.72 23.9501 25.73 24.0401 25.73C24.2101 25.73 24.3401 25.67 24.4501 25.56L25.2101 24.81C25.4601 24.56 25.7001 24.37 25.9301 24.25C26.1601 24.11 26.3901 24.04 26.6401 24.04C26.8301 24.04 27.0301 24.08 27.2501 24.17C27.4701 24.26 27.7001 24.39 27.9501 24.56L31.2601 26.91C31.5201 27.09 31.7001 27.3 31.8101 27.55C31.9101 27.8 31.9701 28.05 31.9701 28.33Z" fill="#285DA2"/>
</svg>
