<svg width="195" height="174" viewBox="0 0 195 174" fill="none" xmlns="http://www.w3.org/2000/svg">
<path d="M67.4402 69.6798H17.1562V168.054H67.4402V69.6798Z" fill="#FCDCA3"/>
<path d="M52.5183 69.6798H2.23438V168.054H52.5183V69.6798Z" fill="#F8ECD6"/>
<path d="M48.8101 89.9307H5.65039V74.3346H48.8101V89.9307ZM6.18179 89.3807H48.3003V74.8845H6.18179V89.3807Z" fill="#FCDCA3"/>
<path d="M19.3555 74.5939H35.7337V75.4882C35.7337 76.0752 35.5084 76.6382 35.1073 77.0533C34.7063 77.4683 34.1623 77.7015 33.5952 77.7015H21.4983C21.2171 77.7021 20.9386 77.6453 20.6786 77.5343C20.4187 77.4234 20.1824 77.2604 19.9834 77.0548C19.7843 76.8493 19.6264 76.6051 19.5187 76.3362C19.4109 76.0674 19.3555 75.7792 19.3555 75.4882V74.5939Z" fill="#FCDCA3"/>
<path d="M48.8101 109.739H5.65039V94.1427H48.8101V109.739ZM6.18179 109.189H48.3003V94.7151H6.18179V109.189Z" fill="#FCDCA3"/>
<path d="M19.3555 94.4199H35.7337V95.3142C35.7337 95.9012 35.5084 96.4642 35.1073 96.8793C34.7063 97.2943 34.1623 97.5275 33.5952 97.5275H21.4983C20.9312 97.5275 20.3872 97.2943 19.9862 96.8793C19.5851 96.4642 19.3598 95.9012 19.3598 95.3142V94.4199H19.3555Z" fill="#FCDCA3"/>
<path d="M48.8101 129.547H5.65039V113.942H48.8101V129.547ZM6.18179 128.997H48.3003V114.501H6.18179V128.997Z" fill="#FCDCA3"/>
<path d="M19.3555 114.224H35.7337V115.118C35.7337 115.705 35.5084 116.268 35.1073 116.683C34.7063 117.098 34.1623 117.331 33.5952 117.331H21.4983C20.9312 117.331 20.3872 117.098 19.9862 116.683C19.5851 116.268 19.3598 115.705 19.3598 115.118V114.224H19.3555Z" fill="#FCDCA3"/>
<path d="M48.8101 149.351H5.65039V133.759H48.8101V149.351ZM6.18179 148.819H48.3003V134.309H6.18179V148.819Z" fill="#FCDCA3"/>
<path d="M19.3555 134.032H35.7337V134.926C35.7337 135.513 35.5084 136.076 35.1073 136.491C34.7063 136.906 34.1623 137.139 33.5952 137.139H21.4983C20.9312 137.139 20.3872 136.906 19.9862 136.491C19.5851 136.076 19.3598 135.513 19.3598 134.926V134.032H19.3555Z" fill="#FCDCA3"/>
<path d="M54.6172 66H0V70.9006H54.6172V66Z" fill="#F8ECD6"/>
<path d="M71.0386 66H54.6172V70.9006H71.0386V66Z" fill="#FCDCA3"/>
<path d="M4.87839 168.054H2.23438V173.08H4.87839V168.054Z" fill="#F8ECD6"/>
<path d="M21.2046 168.054H18.5605V173.08H21.2046V168.054Z" fill="#F8ECD6"/>
<path d="M51.0229 168.054H48.3789V173.08H51.0229V168.054Z" fill="#F8ECD6"/>
<path d="M65.937 168.054H63.293V173.08H65.937V168.054Z" fill="#F8ECD6"/>
<path d="M58.2376 70.9005C58.2376 70.9631 45.2465 71.0167 29.2225 71.0167C13.1986 71.0167 0.203125 70.9631 0.203125 70.9005C0.203125 70.8379 13.1942 70.7842 29.2225 70.7842C45.2508 70.7842 58.2376 70.8334 58.2376 70.9005Z" fill="#FCDCA3"/>
<path d="M67.4362 168.045C67.4362 168.108 52.838 168.162 34.8353 168.162C16.8326 168.162 2.23438 168.108 2.23438 168.045C2.23438 167.983 16.8283 167.929 34.8353 167.929C52.8423 167.929 67.4362 167.987 67.4362 168.045Z" fill="#FCDCA3"/>
<path d="M73.0007 71.5444L72.789 79.2083L68.6934 79.092L68.9094 71.4326L73.0007 71.5444Z" fill="#FFD07B" fill-opacity="0.56"/>
<path d="M70.4989 72.9127C70.6983 72.6925 70.8462 72.4278 70.9309 72.1391C71.179 71.4578 71.2591 70.7234 71.164 70.002C71.069 69.2807 70.8018 68.5952 70.3866 68.0076C70.2314 67.7531 70.0233 67.5377 69.7774 67.3771C69.7515 67.4039 69.9762 67.6454 70.2527 68.097C70.6142 68.6827 70.8485 69.3427 70.9395 70.0313C71.0305 70.7199 70.976 71.4208 70.7797 72.0855C70.6242 72.5997 70.4687 72.8948 70.4989 72.9127Z" fill="#FCDCA3"/>
<path d="M69.6423 71.6875C69.7324 71.3085 69.7471 70.9145 69.6855 70.5294C69.6945 70.1391 69.6315 69.7506 69.4997 69.3848C69.3999 70.1546 69.4484 70.9372 69.6423 71.6875Z" fill="#FCDCA3"/>
<path d="M191.686 151.362V173.327H159.422H123.832V151.362H191.686Z" fill="#FFD07B" fill-opacity="0.26"/>
<path d="M194.512 145.055V151.362H121.439V145.055H159.397H194.512Z" fill="#FFD07B" fill-opacity="0.56"/>
<path d="M157.86 173.327H123.802V151.229H121.44V145.055H159.281V150.659L157.86 173.327Z" fill="#FFD07B" fill-opacity="0.56"/>
<path d="M168.414 154.841H182.115V158.103H168.414V154.841Z" fill="#FFD07B" fill-opacity="0.56"/>
<path d="M166.24 162.236H183.855V169.412H166.24V162.236Z" fill="white"/>
<path d="M181.246 123.089V145.272H148.979H113.393V123.089H181.246Z" fill="#FFD07B" fill-opacity="0.26"/>
<path d="M184.072 117V123.089H110.999V117H148.958H184.072Z" fill="#FFD07B" fill-opacity="0.56"/>
<path d="M147.42 145.272H113.362V123.179H111V117H148.842V122.61L147.42 145.272Z" fill="#FFD07B" fill-opacity="0.56"/>
<path d="M157.975 126.786H171.676V130.049H157.975V126.786Z" fill="#FFD07B" fill-opacity="0.56"/>
<path d="M155.8 134.181H173.416V141.14H155.8V134.181Z" fill="white"/>
<path d="M58.261 40.1537H32.2832C31.2121 40.1537 30.3438 41.0208 30.3438 42.0905V43.0302C30.3438 44.0998 31.2121 44.967 32.2832 44.967H58.261C59.3321 44.967 60.2004 44.0998 60.2004 43.0302V42.0905C60.2004 41.0208 59.3321 40.1537 58.261 40.1537Z" fill="#FFD07B" fill-opacity="0.42"/>
<path d="M58.5696 35.3405H32.5918C31.5207 35.3405 30.6523 36.2076 30.6523 37.2772V38.2169C30.6523 39.2866 31.5207 40.1537 32.5918 40.1537H58.5696C59.6407 40.1537 60.509 39.2866 60.509 38.2169V37.2772C60.509 36.2076 59.6407 35.3405 58.5696 35.3405Z" fill="#FCDCA3"/>
<path d="M36.3125 40.1536C36.3125 40.1183 41.2827 40.0918 47.4105 40.0918C53.5382 40.0918 58.5084 40.1183 58.5084 40.1536C58.5084 40.1889 53.5426 40.2197 47.4105 40.2197C41.2783 40.2197 36.3125 40.1889 36.3125 40.1536Z" fill="#FFD07B" fill-opacity="0.42"/>
<path d="M40.6226 44.989C40.5299 44.7773 40.4636 44.5567 40.4238 44.3317C40.3046 43.7846 40.2427 43.2287 40.2383 42.6729C40.2383 42.1126 40.2869 41.5567 40.3929 41.0096C40.4238 40.7802 40.4901 40.5596 40.5785 40.3479C40.5608 40.5773 40.5299 40.8023 40.4813 41.0273C40.4017 41.5743 40.362 42.1214 40.3664 42.6729C40.3708 43.2243 40.4194 43.7714 40.5122 44.314C40.5608 44.5346 40.6006 44.764 40.6226 44.989Z" fill="white"/>
<path d="M45.0897 45.0859C45.0013 44.8653 44.9439 44.6315 44.913 44.3933C44.8113 43.8286 44.7583 43.255 44.7539 42.6815C44.7539 42.108 44.7937 41.5345 44.882 40.9697C44.9085 40.7315 44.9616 40.5021 45.0455 40.2771C45.0322 40.5153 45.0102 40.7492 44.9704 40.983C44.9085 41.5477 44.8776 42.1124 44.882 42.6815C44.8864 43.2506 44.9262 43.8153 45.0013 44.38C45.0455 44.6139 45.072 44.8477 45.0897 45.0859Z" fill="white"/>
<path d="M49.6753 45.0862C49.6046 44.8612 49.556 44.6273 49.5295 44.3891C49.4412 43.82 49.397 43.2464 49.3926 42.6685C49.3926 42.0906 49.4235 41.517 49.4942 40.9435C49.5119 40.7053 49.556 40.4714 49.6312 40.242C49.6312 40.4803 49.6135 40.7185 49.5826 40.9523C49.5472 41.3935 49.5163 41.9979 49.5207 42.6685C49.5251 43.3391 49.5737 43.9391 49.6179 44.3759C49.6532 44.6097 49.6753 44.8479 49.6753 45.0862Z" fill="white"/>
<path d="M54.8053 44.914C54.7478 44.6934 54.7125 44.4684 54.6992 44.2434C54.6506 43.8287 54.5976 43.2552 54.5623 42.6155C54.5269 41.9758 54.5048 41.4022 54.5048 40.9875C54.4828 40.7625 54.4828 40.5331 54.5048 40.3081C54.549 40.5287 54.5711 40.7581 54.5711 40.9831C54.5976 41.4243 54.6286 41.9978 54.6639 42.6111C54.6992 43.2243 54.739 43.7758 54.7655 44.2346C54.7964 44.4596 54.8097 44.689 54.8053 44.914Z" fill="white"/>
<path d="M57.1195 40.1713C57.009 38.5963 56.9781 37.0125 57.0311 35.4331C57.1416 37.0081 57.1725 38.5919 57.1195 40.1713Z" fill="white"/>
<path d="M51.9157 40.0698C51.845 39.8448 51.8008 39.611 51.7831 39.3727C51.6417 38.2345 51.6638 37.083 51.8494 35.9536C51.8759 35.7154 51.9289 35.486 52.0084 35.261C51.9996 35.4992 51.9775 35.733 51.9377 35.9669C51.8891 36.408 51.8317 36.9992 51.8185 37.661C51.8052 38.3228 51.8185 38.9272 51.8715 39.3639C51.898 39.5977 51.9157 39.836 51.9157 40.0698Z" fill="white"/>
<path d="M46.8177 40.2065C46.7558 39.9727 46.7205 39.73 46.7116 39.4874C46.663 38.9006 46.6542 38.3094 46.6807 37.7227C46.7072 37.1403 46.7691 36.5579 46.8751 35.9844C46.906 35.7418 46.9635 35.5079 47.0474 35.2785C47.0341 35.5212 47.0076 35.7594 46.9635 35.9977C46.906 36.4388 46.8397 37.0521 46.8044 37.7315C46.7691 38.4109 46.8044 39.0241 46.8044 39.4697C46.8309 39.7124 46.8353 39.9594 46.8177 40.2065Z" fill="white"/>
<path d="M42.138 40.2375C42.054 40.0125 41.9966 39.7831 41.9613 39.5448C41.8597 38.9757 41.8066 38.3934 41.8066 37.8154C41.8066 37.2375 41.8552 36.6595 41.9613 36.0904C41.9922 35.8522 42.054 35.6184 42.138 35.3934C42.1247 35.6316 42.0938 35.8698 42.0496 36.1037C41.895 37.2419 41.895 38.3934 42.0496 39.5316C42.0938 39.7654 42.1247 39.9993 42.138 40.2375Z" fill="white"/>
<path d="M36.8778 40.0609C36.8778 40.0609 36.8381 40.0036 36.7939 39.8889C36.7232 39.7301 36.6658 39.5668 36.6216 39.3992C36.3035 38.2918 36.2814 37.1227 36.5553 36.0021C36.5951 35.8345 36.6481 35.6668 36.71 35.5036C36.7497 35.3889 36.7807 35.3271 36.7895 35.3315C36.7983 35.3359 36.7276 35.5962 36.6437 36.0198C36.4184 37.1315 36.4361 38.2742 36.7055 39.3771C36.7762 39.6021 36.8337 39.8315 36.8778 40.0609Z" fill="white"/>
<path d="M36.0204 44.7418C35.8923 44.5565 35.7863 44.3536 35.7111 44.1418C35.3047 43.1227 35.1987 42.0065 35.4063 40.9256C35.4372 40.7006 35.4991 40.4845 35.5963 40.2771C35.5963 40.2771 35.5521 40.533 35.4947 40.9389C35.4196 41.4727 35.4063 42.0109 35.4549 42.5447C35.5079 43.0786 35.6228 43.6036 35.7951 44.1109C35.8834 44.3183 35.9586 44.5256 36.0204 44.7418Z" fill="white"/>
<path d="M32.971 44.57C32.8429 44.3935 32.7457 44.1994 32.6839 43.9876C32.5204 43.4891 32.432 42.9641 32.4232 42.4391C32.4144 41.9185 32.4497 41.3935 32.5204 40.8773C32.5381 40.6612 32.5778 40.4494 32.6397 40.242C32.6485 40.4582 32.6397 40.6744 32.6088 40.8906C32.5646 41.4067 32.5425 41.9229 32.5513 42.4391C32.5602 42.9553 32.6353 43.467 32.7722 43.9612C32.8827 44.3406 32.9887 44.5612 32.971 44.57Z" fill="white"/>
<path d="M33.7454 35.3405C33.7675 35.3405 33.6305 35.5963 33.4847 36.0155C33.2947 36.5669 33.202 37.1449 33.202 37.7272C33.2108 38.3096 33.2903 38.8875 33.4317 39.4522C33.5377 39.8934 33.6217 40.1537 33.604 40.1581C33.5863 40.1625 33.5642 40.0963 33.5156 39.9816C33.467 39.8669 33.4096 39.6905 33.3433 39.4743C33.171 38.9007 33.0827 38.3096 33.0783 37.7096C33.0738 37.114 33.1843 36.5228 33.4008 35.9669C33.467 35.7993 33.5466 35.6404 33.6349 35.486C33.6658 35.4331 33.7012 35.3846 33.7454 35.3405Z" fill="white"/>
<path d="M64.777 42.2228H21.0391V66.1522H64.777V42.2228Z" fill="#FFDD9A"/>
<path d="M64.777 42.2228H21.0391V66.1522H64.777V42.2228Z" fill="#FFECBE"/>
<path d="M41.8822 42.2228H10.3379V66.1522H41.8822V42.2228Z" fill="#FFDD9A"/>
<path d="M9.78602 42.2228L3 51.9728H35.3308L42.1875 42.2228H9.78602Z" fill="#FFDD9A"/>
<path d="M9.84852 42.1345L3.0625 51.8845L35.3314 51.9728L42.1881 42.2228L9.84852 42.1345Z" fill="#FFECBE"/>
<path d="M64.7729 42.2228L72.0007 51.0772H47.0877L41.8789 42.2228H64.7729Z" fill="#FFDD9A"/>
<path d="M195.001 0H135.963V97.7213H195.001V0Z" fill="#FFD07B" fill-opacity="0.56"/>
<path d="M193.038 0H134V97.7213H193.038V0Z" fill="#FFD07B" fill-opacity="0.3"/>
<path d="M190.523 1.98447H136.516V95.7411H190.523V1.98447Z" fill="#FAFAFA"/>
<path d="M180.006 14.1642H146.795V83.5574H180.006V14.1642Z" fill="#FFD07B" fill-opacity="0.3"/>
<path d="M146.795 59.002C146.72 52.5221 152.549 46.1937 158.966 45.2884C162.025 44.8424 165.281 45.4623 168.14 44.2894C173.246 42.1978 174.869 35.4146 180.007 33.4033L180.239 83.5572H146.791L146.795 59.002Z" fill="#FFD07B" fill-opacity="0.56"/>
<path d="M99.1382 101.9C99.1382 101.9 94.2392 75.6215 94.2266 70.2149C94.2108 62.7351 99.7439 59.7674 99.7439 59.7674L97.5956 53.4206H109.422L107.554 59.725C107.554 59.725 113.782 63.14 112.917 70.9005C111.293 85.4095 108.706 101.916 108.706 101.916L99.1382 101.9Z" fill="#FFDD9A"/>
<path d="M110.423 62.7351H110.291C110.163 62.7214 110.034 62.7148 109.906 62.7155C109.411 62.7257 108.924 62.8366 108.471 63.042C107.756 63.3729 107.125 63.8714 106.628 64.4981C106.313 64.8841 106.031 65.297 105.783 65.7323C105.497 66.215 105.248 66.7205 105.038 67.2439C104.806 67.815 104.689 68.4295 104.695 69.0493C104.712 69.7184 104.961 70.3589 105.395 70.8548C105.622 71.1087 105.911 71.2957 106.231 71.3967C106.562 71.4959 106.915 71.4868 107.24 71.3706C107.577 71.235 107.88 71.0216 108.126 70.7467C108.371 70.4717 108.553 70.1424 108.657 69.7839C108.756 69.4044 108.763 69.0052 108.677 68.6222C108.59 68.2393 108.413 67.8846 108.161 67.5899C107.642 66.9527 106.925 66.5222 106.133 66.3722C105.307 66.2453 104.462 66.3501 103.688 66.6758C102.498 67.1775 101.441 67.9688 100.609 68.9827C99.7765 69.9966 99.1924 71.2032 98.9061 72.5003C98.7409 73.3184 98.7582 74.1648 98.9566 74.975C99.1214 75.7564 99.5305 76.4599 100.121 76.9764C100.4 77.2202 100.738 77.3815 101.098 77.4432C101.448 77.4977 101.805 77.4238 102.108 77.2343C102.389 77.0354 102.619 76.7678 102.776 76.4551C102.934 76.1425 103.014 75.7944 103.01 75.4419C103.022 75.1049 102.958 74.7698 102.824 74.4624C102.686 74.1707 102.494 73.91 102.259 73.6952C101.804 73.2948 101.252 73.0287 100.663 72.9247C99.6396 72.7491 98.5887 72.9378 97.6821 73.4601C96.9922 73.8437 96.3915 74.3785 95.9219 75.0272C95.6219 75.4354 95.3827 75.8877 95.2121 76.3691C95.0954 76.6956 95.0544 76.8784 95.0449 76.8751C95.0762 76.6985 95.1215 76.5249 95.1806 76.356C95.3409 75.8657 95.574 75.4042 95.8714 74.9881C96.336 74.3214 96.9384 73.7705 97.6348 73.3752C98.5591 72.8308 99.6352 72.6292 100.685 72.8039C101.297 72.9068 101.871 73.1799 102.345 73.594C102.596 73.8192 102.801 74.0946 102.947 74.4037C103.091 74.7289 103.162 75.0841 103.152 75.4419C103.156 75.8198 103.07 76.1929 102.902 76.5283C102.733 76.8637 102.488 77.151 102.187 77.3649C101.856 77.5748 101.463 77.6558 101.08 77.5934C100.69 77.5322 100.325 77.3617 100.023 77.1004C99.4051 76.5624 98.9752 75.8295 98.7988 75.0142C98.5948 74.1794 98.5764 73.3075 98.7452 72.4643C99.1125 70.6903 100.04 69.0935 101.382 67.9262C102.048 67.3254 102.807 66.8463 103.628 66.5093C104.427 66.1725 105.299 66.0654 106.152 66.1991C106.983 66.3578 107.734 66.8102 108.278 67.4789C108.538 67.8065 108.725 68.1887 108.827 68.5988C108.927 69.003 108.916 69.4282 108.796 69.8264C108.685 70.2092 108.491 70.5604 108.228 70.8527C107.964 71.1449 107.639 71.3702 107.278 71.511C106.924 71.6386 106.54 71.6478 106.18 71.5371C105.836 71.4265 105.526 71.2238 105.281 70.9495C104.828 70.4257 104.57 69.7522 104.553 69.0493C104.551 68.4118 104.675 67.7806 104.919 67.1949C105.132 66.6676 105.387 66.1588 105.679 65.6735C105.934 65.2357 106.224 64.8207 106.546 64.4328C107.058 63.8004 107.706 63.3016 108.439 62.9767C108.901 62.7733 109.398 62.6721 109.9 62.6796C110.076 62.6771 110.251 62.6957 110.423 62.7351Z" fill="#FFEDCC"/>
<path d="M110.729 82.5853C110.76 83.0334 110.723 83.4838 110.622 83.9206C110.515 84.4377 110.341 84.9375 110.105 85.4061C109.792 86.0296 109.372 86.5885 108.865 87.0548C108.245 87.6203 107.503 88.0234 106.701 88.2302C105.78 88.4785 104.81 88.4639 103.897 88.1877C102.886 87.8715 102 87.2256 101.373 86.3463C100.682 85.4136 100.338 84.2548 100.404 83.0815C100.433 82.4716 100.683 81.8954 101.105 81.4687C101.325 81.2778 101.588 81.1477 101.87 81.0906C102.152 81.0335 102.443 81.0513 102.717 81.1422C102.985 81.2155 103.235 81.3453 103.452 81.5234C103.669 81.7015 103.848 81.924 103.979 82.1772C104.208 82.6695 104.266 83.229 104.143 83.7606C104.034 84.2608 103.801 84.7232 103.468 85.1024C103.148 85.452 102.761 85.7279 102.332 85.9121C101.565 86.2377 100.728 86.3502 99.906 86.2386C99.2332 86.1532 98.5805 85.9442 97.9786 85.6216C97.5202 85.3836 97.0956 85.0815 96.7168 84.7237C96.3898 84.4289 96.1079 84.0843 95.8809 83.7018C95.8809 83.7018 95.9029 83.7214 95.9408 83.7671L96.0954 83.9695C96.3006 84.2208 96.523 84.4565 96.761 84.6748C97.1441 85.0169 97.5682 85.3066 98.0228 85.5367C98.6169 85.8404 99.2572 86.0359 99.9155 86.1145C100.714 86.2168 101.525 86.1044 102.269 85.7881C102.679 85.6098 103.047 85.3439 103.351 85.0078C103.664 84.6471 103.882 84.2083 103.982 83.7345C104.094 83.2395 104.038 82.7196 103.824 82.262C103.705 82.0321 103.541 81.8299 103.344 81.6676C103.146 81.5054 102.919 81.3866 102.676 81.3185C102.429 81.2357 102.165 81.2192 101.91 81.2706C101.655 81.322 101.417 81.4396 101.218 81.6123C100.834 82.0127 100.609 82.5473 100.587 83.1109C100.522 84.2437 100.852 85.363 101.518 86.2647C102.125 87.1156 102.98 87.7427 103.956 88.0539C104.843 88.3243 105.783 88.3434 106.679 88.1094C107.463 87.9145 108.19 87.527 108.799 86.9797C109.301 86.529 109.719 85.9868 110.032 85.38C110.272 84.9218 110.453 84.4335 110.572 83.9271C110.644 83.6049 110.694 83.2775 110.72 82.9476C110.72 82.8432 110.72 82.7583 110.72 82.6897C110.717 82.6546 110.72 82.6193 110.729 82.5853Z" fill="#FFEDCC"/>
<path d="M108.528 94.9689C108.512 95.0048 107.998 94.7175 107.102 94.4498C106.86 94.3729 106.613 94.3119 106.364 94.267C106.095 94.2017 105.805 94.1723 105.499 94.1299C104.836 94.0647 104.169 94.0647 103.506 94.1299C102.844 94.215 102.191 94.3636 101.556 94.5739C101.269 94.6849 100.991 94.7796 100.745 94.9004C100.511 95.0027 100.283 95.1182 100.061 95.2464C99.2469 95.7133 98.799 96.1116 98.7832 96.0822C98.8779 95.9758 98.9837 95.8805 99.0987 95.7982C99.2177 95.6874 99.3453 95.5869 99.4804 95.4978C99.6514 95.3678 99.8293 95.2479 100.013 95.1387C100.231 95.0118 100.456 94.8974 100.685 94.7959C100.952 94.6637 101.226 94.547 101.506 94.4465C102.792 93.9806 104.164 93.8221 105.518 93.9829C105.812 94.0181 106.103 94.0693 106.392 94.1364C106.644 94.1896 106.892 94.2583 107.136 94.3421C107.34 94.4067 107.54 94.4819 107.736 94.5673C107.884 94.6274 108.03 94.6961 108.171 94.773C108.296 94.826 108.415 94.8916 108.528 94.9689Z" fill="#FFEDCC"/>
<path d="M107.701 60.0873C107.579 60.1926 107.448 60.2866 107.31 60.3681C107.054 60.5444 106.679 60.7762 106.184 61.0439C103.635 62.4295 100.82 63.2102 97.944 63.3293C97.3951 63.3489 96.9503 63.3489 96.6411 63.3293C96.4825 63.329 96.3243 63.3148 96.168 63.2868C96.3254 63.261 96.4851 63.2522 96.6443 63.2607C96.9598 63.2607 97.3919 63.2411 97.9377 63.2052C100.791 63.0159 103.58 62.2389 106.139 60.9198C106.628 60.6684 107.02 60.453 107.288 60.2963C107.418 60.2118 107.556 60.1418 107.701 60.0873Z" fill="#FFEDCC"/>
<path d="M109.19 53.7111C109.19 53.7111 108.899 53.6817 108.376 53.6817C107.637 53.6842 106.904 53.8076 106.202 54.0473C105.72 54.2132 105.255 54.4321 104.817 54.7003C104.575 54.8504 104.342 55.0161 104.12 55.1966C103.884 55.386 103.672 55.6054 103.489 55.8495C103.294 56.094 103.16 56.3844 103.098 56.6951C103.072 56.8521 103.084 57.0132 103.132 57.1645C103.179 57.3158 103.262 57.4528 103.373 57.5636C103.622 57.7898 103.923 57.947 104.247 58.0206C104.567 58.1406 104.911 58.1819 105.25 58.1414C105.403 58.0925 105.538 57.9943 105.634 57.8612C105.731 57.728 105.784 57.5667 105.786 57.4003C105.81 57.061 105.741 56.7216 105.587 56.4209C105.302 55.8299 104.841 55.3493 104.272 55.0496C103.76 54.7659 103.193 54.6062 102.612 54.5828C102.106 54.574 101.602 54.6512 101.12 54.8113C100.42 55.0542 99.7626 55.4137 99.174 55.8756C98.9627 56.0356 98.8049 56.1695 98.6977 56.2609C98.5904 56.3523 98.5337 56.398 98.5273 56.3915C98.5721 56.3337 98.6217 56.2802 98.6756 56.2315C98.7734 56.1336 98.928 55.9932 99.133 55.8201C99.7161 55.3325 100.375 54.9516 101.083 54.6938C101.577 54.5187 102.096 54.4326 102.619 54.4391C103.221 54.4567 103.811 54.6163 104.344 54.906C104.946 55.2196 105.434 55.7241 105.739 56.3458C105.906 56.677 105.982 57.0501 105.956 57.4232C105.939 57.6202 105.875 57.8099 105.77 57.9749C105.656 58.1461 105.486 58.2681 105.291 58.3177C104.923 58.3666 104.549 58.3252 104.199 58.1969C103.848 58.1136 103.523 57.9407 103.253 57.6942C103.124 57.5639 103.028 57.403 102.973 57.2254C102.918 57.0478 102.906 56.8591 102.937 56.6755C103.004 56.3374 103.151 56.0219 103.366 55.7581C103.561 55.5122 103.784 55.2928 104.032 55.1051C104.261 54.9216 104.501 54.7537 104.751 54.6024C105.199 54.3311 105.674 54.1121 106.168 53.9494C106.881 53.7122 107.627 53.6018 108.376 53.6229C108.579 53.6271 108.781 53.6456 108.981 53.6784C109.052 53.6812 109.122 53.6922 109.19 53.7111Z" fill="#FFEDCC"/>
<path d="M95.5962 52.4313L91 54.5469L92.123 57.1816L96.7223 55.0627L95.5962 52.4313Z" fill="#FFD07B" fill-opacity="0.56"/>
<path d="M95.4141 54.4099C95.496 54.2248 95.6192 54.0625 95.7737 53.9365C96.1239 53.6001 96.5494 53.359 97.0119 53.2348C97.4743 53.1106 97.9594 53.1071 98.4235 53.2247C98.6174 53.2606 98.8015 53.3397 98.9629 53.4565C98.9629 53.4827 98.7484 53.3978 98.4014 53.3357C97.953 53.2526 97.4925 53.2704 97.0513 53.388C96.6109 53.5088 96.2003 53.7246 95.8462 54.0214C95.5718 54.2499 95.433 54.4262 95.4141 54.4099Z" fill="#FFD07B"/>
<path d="M96.3789 54.6381C96.5851 54.4814 96.8203 54.3703 97.0697 54.3116C97.304 54.2052 97.5555 54.1454 97.8111 54.1353C97.6049 54.2921 97.3697 54.4032 97.1202 54.4618C96.886 54.5683 96.6345 54.6281 96.3789 54.6381Z" fill="#FFD07B"/>
<path d="M124.132 101H29V144.873H124.132V101Z" fill="#FFFBED"/>
<path d="M121.869 142.809H31.1758V103.336H121.869V142.809ZM31.7651 142.219H121.275V103.904H31.7651V142.219Z" fill="#FFE1A5"/>
<path d="M147.374 101H124.131V144.874H147.374V101Z" fill="#FFE1A5"/>
<path d="M31.4737 115.547H121.573C121.6 115.541 121.624 115.526 121.642 115.504C121.66 115.482 121.669 115.455 121.669 115.427C121.669 115.399 121.66 115.372 121.642 115.35C121.624 115.329 121.6 115.314 121.573 115.308H31.4737C31.4464 115.314 31.4218 115.329 31.4042 115.35C31.3866 115.372 31.377 115.399 31.377 115.427C31.377 115.455 31.3866 115.482 31.4042 115.504C31.4218 115.526 31.4464 115.541 31.4737 115.547Z" fill="#FFE1A5"/>
<path d="M76.8174 115.414C77.0669 111.445 77.0776 107.465 76.8493 103.495C76.8493 103.463 76.8364 103.432 76.8135 103.409C76.7906 103.386 76.7596 103.373 76.7272 103.373C76.6948 103.373 76.6637 103.386 76.6408 103.409C76.6179 103.432 76.6051 103.463 76.6051 103.495C76.3741 107.465 76.3847 111.446 76.6369 115.414C76.6369 115.438 76.6464 115.461 76.6633 115.478C76.6803 115.495 76.7032 115.504 76.7272 115.504C76.7511 115.504 76.7741 115.495 76.791 115.478C76.8079 115.461 76.8174 115.438 76.8174 115.414Z" fill="#FFE1A5"/>
<path d="M101.069 109.457C101.069 109.701 100.996 109.94 100.861 110.142C100.725 110.345 100.533 110.503 100.307 110.596C100.082 110.689 99.834 110.713 99.5949 110.665C99.3558 110.617 99.1364 110.499 98.9643 110.326C98.7923 110.154 98.6754 109.934 98.6285 109.694C98.5816 109.455 98.6067 109.207 98.7008 108.982C98.7948 108.757 98.9535 108.565 99.1567 108.431C99.36 108.296 99.5986 108.225 99.8425 108.226C100.168 108.227 100.48 108.357 100.71 108.588C100.94 108.819 101.069 109.132 101.069 109.457Z" fill="#FFE1A5"/>
<path d="M53.7828 109.457C53.7818 109.7 53.709 109.936 53.5736 110.137C53.4382 110.338 53.2463 110.495 53.0221 110.587C52.7979 110.679 52.5515 110.702 52.314 110.654C52.0764 110.606 51.8584 110.489 51.6874 110.317C51.5164 110.146 51.4001 109.927 51.3533 109.689C51.3064 109.452 51.331 109.205 51.4239 108.981C51.5169 108.758 51.6741 108.566 51.8757 108.432C52.0772 108.297 52.3141 108.226 52.5564 108.226C52.7179 108.226 52.8779 108.258 53.027 108.32C53.1761 108.381 53.3116 108.472 53.4255 108.587C53.5395 108.701 53.6297 108.837 53.691 108.986C53.7523 109.136 53.7835 109.296 53.7828 109.457Z" fill="#FFE1A5"/>
<path d="M77.7524 123.059C77.7535 123.303 77.6821 123.542 77.5474 123.745C77.4127 123.948 77.2207 124.107 76.9958 124.201C76.7708 124.295 76.523 124.32 76.2837 124.273C76.0444 124.226 75.8245 124.109 75.6517 123.937C75.4789 123.765 75.3611 123.546 75.3131 123.307C75.2652 123.068 75.2893 122.82 75.3823 122.594C75.4754 122.369 75.6332 122.176 75.8359 122.041C76.0386 121.905 76.2769 121.833 76.5207 121.833C76.6822 121.832 76.8423 121.863 76.9917 121.925C77.1411 121.986 77.2769 122.076 77.3913 122.19C77.5058 122.304 77.5966 122.439 77.6586 122.589C77.7205 122.738 77.7524 122.898 77.7524 123.059Z" fill="#FFE1A5"/>
<path d="M40.3714 144.879L35.4766 172.422H38.2319L47.2625 144.879H40.3714Z" fill="#FFE1A5"/>
<path d="M117.405 144.879L121.498 172.47H118.743L110.514 144.879H117.405Z" fill="#FFE1A5"/>
<path d="M135.795 144.879L140.435 172.47H137.68L128.904 144.879H135.795Z" fill="#FFE1A5"/>
<path d="M77.6676 135.477C77.6676 135.719 77.5957 135.956 77.4609 136.158C77.3262 136.36 77.1346 136.517 76.9105 136.61C76.6864 136.703 76.4399 136.727 76.202 136.68C75.9641 136.632 75.7455 136.515 75.574 136.344C75.4025 136.172 75.2857 135.954 75.2384 135.716C75.1911 135.478 75.2154 135.232 75.3082 135.007C75.401 134.783 75.5582 134.592 75.7599 134.457C75.9616 134.322 76.1987 134.25 76.4412 134.25C76.6025 134.25 76.7622 134.281 76.9114 134.342C77.0605 134.404 77.1959 134.494 77.31 134.608C77.424 134.722 77.5143 134.858 77.5757 135.007C77.6371 135.156 77.6683 135.316 77.6676 135.477Z" fill="#FFE1A5"/>
<path d="M31.4737 129.122H121.573C121.6 129.116 121.624 129.101 121.642 129.079C121.66 129.058 121.669 129.03 121.669 129.002C121.669 128.974 121.66 128.947 121.642 128.926C121.624 128.904 121.6 128.889 121.573 128.883H31.4737C31.4464 128.889 31.4218 128.904 31.4042 128.926C31.3866 128.947 31.377 128.974 31.377 129.002C31.377 129.03 31.3866 129.058 31.4042 129.079C31.4218 129.101 31.4464 129.116 31.4737 129.122Z" fill="#FFE1A5"/>
</svg>
