<svg width="24" height="18" viewBox="0 0 24 18" fill="none" xmlns="http://www.w3.org/2000/svg">
<path d="M23.25 2.11613C22.3909 2.475 21.4756 2.71288 20.5213 2.82838C21.503 2.27013 22.2523 1.39287 22.6046 0.3355C21.6893 0.85525 20.6786 1.22238 19.6016 1.42725C18.7325 0.545875 17.4937 0 16.1424 0C13.5205 0 11.4098 2.02675 11.4098 4.51137C11.4098 4.86888 11.4415 5.21263 11.5195 5.53988C7.58239 5.357 4.09862 3.55988 1.7583 0.82225C1.34972 1.49738 1.11006 2.27012 1.11006 3.102C1.11006 4.664 1.95465 6.04862 3.2136 6.85025C2.45274 6.8365 1.70633 6.62613 1.07396 6.29475C1.07396 6.3085 1.07396 6.32638 1.07396 6.34425C1.07396 8.536 2.71551 10.3565 4.86814 10.7759C4.48266 10.8763 4.06253 10.9244 3.62651 10.9244C3.32333 10.9244 3.01725 10.9079 2.72994 10.8474C3.34354 12.6335 5.0847 13.9466 7.15504 13.9893C5.54381 15.1896 3.49802 15.9129 1.28331 15.9129C0.894938 15.9129 0.522451 15.8964 0.149963 15.851C2.24773 17.1394 4.73387 17.875 7.41491 17.875C16.1294 17.875 20.8938 11 20.8938 5.04075C20.8938 4.84137 20.8865 4.64887 20.8764 4.45775C21.8163 3.8225 22.6061 3.02913 23.25 2.11613Z" fill="white"/>
</svg>
